<svg xmlns="http://www.w3.org/2000/svg" width="321.874" height="199.461" viewBox="0 0 321.874 199.461">
  <g id="_2" data-name="2" transform="translate(848.32 48)" opacity="0.8">
    <g id="Group_1" data-name="Group 1" transform="translate(-791.68 19.122) rotate(-17)">
      <path id="Path_18" data-name="Path 18" d="M915.462-968.685c.093.333.592,3.11.778,4.314.074.5.037.592-.111.37-.37-.518,0,2,.741,4.925,1.666,6.536,3.907,10.85,7.443,14.256a15.032,15.032,0,0,0,1.907,1.629c.667.37.815.426-3.2-.889-1.759-.574-3.314-1.037-3.444-1.037-.185,0-.13.407.259,1.629.722,2.3.833,2.888.555,2.722-.481-.3-.037,2.018.833,4.443a37,37,0,0,0,6.036,11.183c1.055,1.259,4.388,4.129,4.629,3.981.2-.111.352,1.814.426,5.943a36.843,36.843,0,0,0,1.7,11.4,26.8,26.8,0,0,0,2.685,6c.315.407-.3-.13-1.37-1.185-1.814-1.8-1.963-1.907-2.055-1.481-.37,1.518-1.222,6.091-1.444,7.573a62.491,62.491,0,0,0-.222,6.85c0,4.481.056,5.3.389,6.758,1.074,4.629,2.611,7.221,5.851,9.961,2.574,2.166,4.184,2.814,5.684,2.259a5.528,5.528,0,0,1,1.2-.333.928.928,0,0,0,.611-.5l.222-.463-.093.555c-.444,2.666-.481,3.147-.241,3.333a.682.682,0,0,1,.185.592,2.331,2.331,0,0,0,.963,1.814,7.46,7.46,0,0,0,3.351.63c.944-.37.611-.093-.741.629a18.442,18.442,0,0,0-9.2,10.5c-.3.759-.5,1.185-.444.926a6.261,6.261,0,0,0-.093-1.666c-.093-.667-.2-2.962-.241-5.091-.056-3.555-.093-4.036-.555-5.61-1.315-4.684-3.962-9.517-8.183-14.923l-1.426-1.833-.815,2.481c-2.222,6.832-2.907,11.035-2.74,16.922.093,3.481.37,5.369,1.092,7.11,1.166,2.888,4.758,7.128,6.832,8.072,1.5.7,1.888.555,3.5-1.222a6.107,6.107,0,0,1,1.666-1.463c.185,0,.592.407,1,1,.407.63.833,1.037,1.074,1.074.2.037-.685.3-2.018.574-4.221.926-6.647,2.185-9.368,4.925a24.7,24.7,0,0,0-2.425,2.814,31.837,31.837,0,0,0-2.185,3.907c0,.074.278.278.611.444.315.185.481.352.37.389-.481.167-.2,1.722.407,2.333.278.3.093.315-2.814.315-4.018-.019-6.128.426-8.961,1.851a20.585,20.585,0,0,0-6.295,5.332c-.444.574-.926,1.166-1.055,1.315-.2.2-.148.333.407.778.592.5.629.574.463,1.166a2.749,2.749,0,0,0,.926,2.555c2.018,1.8,6.313,3.11,10.2,3.11,4.758,0,10.738-2.129,16.478-5.888,2.8-1.814,3.5-2.833,2.611-3.721-.352-.352-.333-.37.944-1.3,1.24-.889,1.278-.944.87-1.129-.241-.093-1.648-.648-3.129-1.2-1.481-.574-2.425-1-2.129-.944a22.444,22.444,0,0,0,5.277-1,28.7,28.7,0,0,0,6.184-3.036c2.74-1.777,7.387-5.758,8.332-7.11.555-.815.648-1.963.185-2.222-.222-.13-.056-.389.944-1.463l1.2-1.315-1.333-.222c-.741-.13-2.129-.37-3.073-.537l-1.722-.3,1.7-.741c4.481-1.907,8.258-5.166,12.312-10.553,1.666-2.24,2.481-3.629,2.481-4.277,0-.611-.2-1.018-.426-.87-.2.13.389-.944,1.389-2.518a2.852,2.852,0,0,0,.444-.907c-.074-.056-7.35.241-9.646.426-.611.037-.944.037-.741-.037a24.61,24.61,0,0,0,5.11-3.944,43.381,43.381,0,0,0,7.221-10.294c.648-1.3.87-2.536.555-2.925-.167-.2-.037-.648.611-2.037.759-1.629.8-1.777.463-1.777-.667,0-6.091.926-8.183,1.389-4.536,1.018-7.943,2.351-10.405,4.092a19.221,19.221,0,0,0-6.628,7.887l-.63,1.407.018-5.943.019-5.962-.518-1.666a33.194,33.194,0,0,0-5.351-10.09c-1.018-1.37-1.148-1.611-.592-1.074,1.352,1.259,6.388,3.481,7.943,3.481a6.9,6.9,0,0,0,1.666-.352c.7-.259,1.018-.3,1.037-.148,0,.13.093-.037.185-.333a3.271,3.271,0,0,0-.037-1.518c-.093-.518-.222-2.573-.259-4.536-.074-3.962-.333-5.665-1.222-7.943-1.444-3.74-4.721-7.758-9.331-11.442-.815-.648-1.574-1.277-1.7-1.389-.167-.148.315-.2,1.8-.2,2.222,0,2.777-.222,3.314-1.315.667-1.352.389-5.721-.537-8.591-1.426-4.369-4.906-8.258-10.035-11.257a11.525,11.525,0,0,1-1.444-.889c0-.056.315.056.685.2a6.47,6.47,0,0,0,2.2.3,3.912,3.912,0,0,0,3.444-1.277l.7-.667.259.648a18.975,18.975,0,0,1,.574,2.018c1.2,5.24,1.481,6.091,2.574,8.072a6.009,6.009,0,0,0,2.888,2.981c1.981,1.222,3.536.333,5.591-3.185a17.332,17.332,0,0,0,2.333-8.239,29.5,29.5,0,0,0-2.314-14.441,88.891,88.891,0,0,0-4.314-8.776,10.039,10.039,0,0,0-1.555,2.611c-3.221,6.443-4.684,10.924-5.091,15.552-.093.889-.167,1.3-.185.889l-.037-.741-.259.592c-.352.833-.611.759-.889-.259-.222-.833-.222-.833-.333-.315-.074.315-.13-.111-.148-1.055-.111-8.461-5.073-14.886-15.571-20.162-1.74-.87-5.888-2.777-6.073-2.777C915.388-969,915.406-968.852,915.462-968.685Zm17.089,55.822c-.056.13-.093.037-.093-.222s.037-.352.093-.241A.977.977,0,0,1,932.551-912.864Zm5.7,16.811c.185.2.3.37.241.37a1.415,1.415,0,0,1-.426-.37c-.185-.2-.3-.37-.241-.37A1.415,1.415,0,0,1,938.253-896.053Zm7.443,27.439c-.056.148-.111.093-.111-.111-.018-.2.037-.315.093-.241A.375.375,0,0,1,945.7-868.614Z" transform="translate(-742.462 969)" fill="#fff"/>
      <path id="Path_19" data-name="Path 19" d="M1140.135-800.926c-5.406,6.776-7.813,11.349-8.7,16.459a35.725,35.725,0,0,0,.278,9.831c1.185,5.2,3.555,7.443,6.091,5.777,2.314-1.518,4.962-5.184,6.054-8.406a15.842,15.842,0,0,0,.926-4.943c-.056-.259-.037-.407.056-.352a28.687,28.687,0,0,0,.13-4.2,33.993,33.993,0,0,0-1.222-10.035,54.8,54.8,0,0,0-1.852-6.2A25.816,25.816,0,0,0,1140.135-800.926Z" transform="translate(-925.476 833.734)" fill="#fff"/>
      <path id="Path_20" data-name="Path 20" d="M1160.041-654.582c-5.036,3.055-8.091,5.277-10.461,7.609a21.013,21.013,0,0,0-4.536,6.2c-1.481,3.018-1.629,3.758-1.685,8.239-.074,5.388.278,6.869,1.8,7.628,1.037.537,1.648.407,4.277-.852a12.321,12.321,0,0,0,4.166-2.777c3.333-3.129,5.184-6.388,6.517-11.4a32.538,32.538,0,0,0,1.222-7.184c-.074-.37-.037-.592.093-.592.111,0,.148-.074.093-.185a24.146,24.146,0,0,1,.093-3.185c.13-1.666.185-3.351.148-3.758l-.056-.759Z" transform="translate(-935.366 713.625)" fill="#fff"/>
      <path id="Path_21" data-name="Path 21" d="M941.336-400.353c-4.036,7.887-5.11,11.923-4.98,18.848a11.614,11.614,0,0,0,.574,4.351c1.222,3.758,3.814,7.684,5.517,8.313,1.129.426,1.426.3,3.055-1.389,3.2-3.333,4.221-6.887,4.184-14.515a28.818,28.818,0,0,0-2.333-10.924A73.816,73.816,0,0,0,943.335-404C943.28-404,942.372-402.352,941.336-400.353Z" transform="translate(-766.687 508.607)" fill="#fff"/>
      <path id="Path_22" data-name="Path 22" d="M816.792-330.4a45.458,45.458,0,0,0-6.61,7.665,23.245,23.245,0,0,0-3.629,9.017,40.134,40.134,0,0,0,.185,8.091,17.731,17.731,0,0,0,1.666,4.61c.463.722.648.852,1.148.87.685.019.592.056-1.7.481a22.24,22.24,0,0,0-9.331,4.518c-.093.093.167.63.611,1.278.444.611.685,1.092.537,1.074-.167-.037-.241.2-.241.889a2.675,2.675,0,0,0,.778,1.981,18.033,18.033,0,0,0,5.332,4.184c4.851,2.388,10.59,2.648,17.9.852,4.036-.981,5.8-1.685,6.313-2.518.278-.444,0-1.648-.389-1.666-.278,0,.37-.315,1.981-.926.426-.167.333-.259-1.481-1.592-7.35-5.425-11.775-7.517-17.478-8.295-.907-.13-1.426-.241-1.148-.259.667-.019,3.629-2.222,4.851-3.592a20.328,20.328,0,0,0,4.814-10.22,9.2,9.2,0,0,0,.2-2.166c-.056-.3-.037-.5.055-.444a51,51,0,0,0,.111-5.406,43.505,43.505,0,0,0-.5-8.517c-.259-1.666-.518-3.055-.555-3.11C820.161-333.64,818.625-332.2,816.792-330.4Z" transform="translate(-654.363 451.245)" fill="#fff"/>
      <path id="Path_23" data-name="Path 23" d="M717.942-243.867c-7.369,1.666-12.053,3.5-15.441,6.017-4.462,3.333-6.665,7.221-7.48,13.2-.185,1.315-.2,1.888-.056,2.037a1.541,1.541,0,0,1,.241.778c.093,1.3.926,1.907,2.8,2.074,3.092.259,7.276-1.092,10.59-3.425A27.868,27.868,0,0,0,714-228.7a45.251,45.251,0,0,0,4.11-7.054c1.574-3.129,1.852-4,1.407-4.684-.148-.222-.185-.222-.185-.019,0,.148-.056.222-.111.167a9.524,9.524,0,0,1,.667-2.092,18.758,18.758,0,0,0,.722-2.018C720.571-244.423,719.368-244.182,717.942-243.867Z" transform="translate(-569.918 378.561)" fill="#fff"/>
      <path id="Path_24" data-name="Path 24" d="M687.7-109.794a23.168,23.168,0,0,0-4.406,1.352A24.844,24.844,0,0,0,679-106a8.618,8.618,0,0,0,.648,1.2c.352.592.555,1.092.463,1.129-.111.037-.185.463-.185.944,0,.981.555,2.018,1.888,3.481a19.638,19.638,0,0,0,11.757,5.814c4.073.537,12.886-.426,15.441-1.7A1.443,1.443,0,0,0,709.9-97a1.739,1.739,0,0,0-.389-.537c-.093-.056.389-.259,1.055-.426a3.145,3.145,0,0,0,1.185-.463,8.532,8.532,0,0,0-1.2-1.129c-.667-.555-1.981-1.666-2.907-2.462a49.767,49.767,0,0,0-8.313-5.573,20.977,20.977,0,0,0-9.387-2.314C688.961-109.887,687.961-109.831,687.7-109.794Z" transform="translate(-556.989 268.964)" fill="#fff"/>
    </g>
    <g id="Group_3" data-name="Group 3" transform="translate(-751.134 151.461) rotate(-163)">
      <path id="Path_18-2" data-name="Path 18" d="M8.847,155.948c.093-.333.592-3.11.778-4.314.074-.5.037-.592-.111-.37-.37.518,0-2,.741-4.925,1.666-6.536,3.907-10.85,7.443-14.256a15.032,15.032,0,0,1,1.907-1.629c.667-.37.815-.426-3.2.889-1.759.574-3.314,1.037-3.444,1.037-.185,0-.13-.407.259-1.629.722-2.3.833-2.888.555-2.722-.481.3-.037-2.018.833-4.443A37,37,0,0,1,20.641,112.4c1.055-1.259,4.388-4.129,4.629-3.981.2.111.352-1.814.426-5.943a36.843,36.843,0,0,1,1.7-11.4,26.8,26.8,0,0,1,2.685-6c.315-.407-.3.13-1.37,1.185-1.814,1.8-1.963,1.907-2.055,1.481-.37-1.518-1.222-6.091-1.444-7.573a62.491,62.491,0,0,1-.222-6.85c0-4.481.056-5.3.389-6.758,1.074-4.629,2.611-7.221,5.851-9.961,2.574-2.166,4.184-2.814,5.684-2.259a5.528,5.528,0,0,0,1.2.333.928.928,0,0,1,.611.5l.222.463-.093-.555c-.444-2.666-.481-3.147-.241-3.333a.682.682,0,0,0,.185-.592,2.331,2.331,0,0,1,.963-1.814,7.46,7.46,0,0,1,3.351-.63c.944.37.611.093-.741-.629a18.442,18.442,0,0,1-9.2-10.5c-.3-.759-.5-1.185-.444-.926a6.261,6.261,0,0,1-.093,1.666c-.093.667-.2,2.962-.241,5.091-.056,3.555-.093,4.036-.555,5.61-1.315,4.684-3.962,9.517-8.183,14.923l-1.426,1.833L21.419,63.3c-2.222-6.832-2.907-11.035-2.74-16.922.093-3.481.37-5.369,1.092-7.11,1.166-2.888,4.758-7.128,6.832-8.072,1.5-.7,1.888-.555,3.5,1.222a6.107,6.107,0,0,0,1.666,1.463c.185,0,.592-.407,1-1,.407-.63.833-1.037,1.074-1.074.2-.037-.685-.3-2.018-.574-4.221-.926-6.647-2.185-9.368-4.925a24.7,24.7,0,0,1-2.425-2.814,31.837,31.837,0,0,1-2.185-3.907c0-.074.278-.278.611-.444.315-.185.481-.352.37-.389-.481-.167-.2-1.722.407-2.333.278-.3.093-.315-2.814-.315-4.018.019-6.128-.426-8.961-1.851A20.585,20.585,0,0,1,1.164,8.924C.719,8.35.238,7.758.108,7.609c-.2-.2-.148-.333.407-.778.592-.5.629-.574.463-1.166A2.749,2.749,0,0,1,1.9,3.11C3.922,1.315,8.218,0,12.106,0c4.758,0,10.738,2.129,16.478,5.888,2.8,1.814,3.5,2.833,2.611,3.721-.352.352-.333.37.944,1.3,1.24.889,1.278.944.87,1.129-.241.093-1.648.648-3.129,1.2-1.481.574-2.425,1-2.129.944a22.444,22.444,0,0,1,5.277,1,28.7,28.7,0,0,1,6.184,3.036c2.74,1.777,7.387,5.758,8.332,7.11.555.815.648,1.963.185,2.222-.222.13-.056.389.944,1.463l1.2,1.315-1.333.222c-.741.13-2.129.37-3.073.537l-1.722.3,1.7.741c4.481,1.907,8.258,5.166,12.312,10.553,1.666,2.24,2.481,3.629,2.481,4.277,0,.611-.2,1.018-.426.87-.2-.13.389.944,1.389,2.518a2.852,2.852,0,0,1,.444.907c-.074.056-7.35-.241-9.646-.426-.611-.037-.944-.037-.741.037a24.61,24.61,0,0,1,5.11,3.944A43.381,43.381,0,0,1,63.595,65.1c.648,1.3.87,2.536.555,2.925-.167.2-.037.648.611,2.037.759,1.629.8,1.777.463,1.777-.667,0-6.091-.926-8.183-1.389C52.5,69.43,49.1,68.1,46.635,66.356a19.221,19.221,0,0,1-6.628-7.887l-.63-1.407.018,5.943.019,5.962L38.9,70.633a33.194,33.194,0,0,1-5.351,10.09c-1.018,1.37-1.148,1.611-.592,1.074,1.352-1.259,6.388-3.481,7.943-3.481a6.9,6.9,0,0,1,1.666.352c.7.259,1.018.3,1.037.148,0-.13.093.037.185.333a3.271,3.271,0,0,1-.037,1.518c-.093.518-.222,2.573-.259,4.536-.074,3.962-.333,5.665-1.222,7.943-1.444,3.74-4.721,7.758-9.331,11.442-.815.648-1.574,1.277-1.7,1.389-.167.148.315.2,1.8.2,2.222,0,2.777.222,3.314,1.315.667,1.352.389,5.721-.537,8.591-1.426,4.369-4.906,8.258-10.035,11.257a11.525,11.525,0,0,0-1.444.889c0,.056.315-.056.685-.2a6.47,6.47,0,0,1,2.2-.3,3.912,3.912,0,0,1,3.444,1.277l.7.667.259-.648a18.975,18.975,0,0,0,.574-2.018c1.2-5.24,1.481-6.091,2.574-8.072a6.009,6.009,0,0,1,2.888-2.981c1.981-1.222,3.536-.333,5.591,3.185a17.332,17.332,0,0,1,2.333,8.239,29.5,29.5,0,0,1-2.314,14.441,88.891,88.891,0,0,1-4.314,8.776,10.039,10.039,0,0,1-1.555-2.611c-3.221-6.443-4.684-10.924-5.091-15.552-.093-.889-.167-1.3-.185-.889l-.037.741-.259-.592c-.352-.833-.611-.759-.889.259-.222.833-.222.833-.333.315-.074-.315-.13.111-.148,1.055-.111,8.461-5.073,14.886-15.571,20.162-1.74.87-5.888,2.777-6.073,2.777C8.773,156.263,8.792,156.115,8.847,155.948Zm17.089-55.822c-.056-.13-.093-.037-.093.222s.037.352.093.241A.977.977,0,0,0,25.936,100.127Zm5.7-16.811c.185-.2.3-.37.241-.37a1.415,1.415,0,0,0-.426.37c-.185.2-.3.37-.241.37A1.415,1.415,0,0,0,31.639,83.316Zm7.443-27.439c-.056-.148-.111-.093-.111.111-.018.2.037.315.093.241A.375.375,0,0,0,39.082,55.877Z" transform="translate(42.142 19.426)" fill="#fff"/>
      <path id="Path_19-2" data-name="Path 19" d="M8.922,32.61C3.515,25.834,1.108,21.26.22,16.15A35.725,35.725,0,0,1,.5,6.319C1.682,1.117,4.052-1.124,6.589.543,8.9,2.061,11.551,5.727,12.643,8.948a15.842,15.842,0,0,1,.926,4.943c-.056.259-.037.407.056.352a28.687,28.687,0,0,1,.13,4.2,33.993,33.993,0,0,1-1.222,10.035,54.8,54.8,0,0,1-1.852,6.2A25.816,25.816,0,0,1,8.922,32.61Z" transform="translate(83.725 110.271)" fill="#fff"/>
      <path id="Path_20-2" data-name="Path 20" d="M16.691,29.978C11.655,26.923,8.6,24.7,6.23,22.369a21.013,21.013,0,0,1-4.536-6.2C.213,13.148.065,12.408.009,7.927-.065,2.539.287,1.058,1.805.3c1.037-.537,1.648-.407,4.277.852a12.321,12.321,0,0,1,4.166,2.777c3.333,3.129,5.184,6.388,6.517,11.4a32.538,32.538,0,0,1,1.222,7.184c-.074.37-.037.592.093.592.111,0,.148.074.093.185a24.146,24.146,0,0,0,.093,3.185c.13,1.666.185,3.351.148,3.758L18.357,31Z" transform="translate(85.973 86.668)" fill="#fff"/>
      <path id="Path_21-2" data-name="Path 21" d="M4.991,31.718C.954,23.831-.119,19.795.01,12.87A11.614,11.614,0,0,1,.584,8.519C1.806,4.761,4.4.836,6.1.206,7.231-.22,7.527-.09,9.156,1.595c3.2,3.333,4.221,6.887,4.184,14.515a28.818,28.818,0,0,1-2.333,10.924A73.816,73.816,0,0,1,6.99,35.366C6.935,35.366,6.027,33.718,4.991,31.718Z" transform="translate(47.646 35.716)" fill="#fff"/>
      <path id="Path_22-2" data-name="Path 22" d="M18.293,46.68a45.458,45.458,0,0,1-6.61-7.665A23.245,23.245,0,0,1,8.054,30a40.134,40.134,0,0,1,.185-8.091A17.731,17.731,0,0,1,9.905,17.3c.463-.722.648-.852,1.148-.87.685-.019.592-.056-1.7-.481A22.24,22.24,0,0,1,.019,11.428c-.093-.093.167-.63.611-1.278.444-.611.685-1.092.537-1.074C1,9.114.926,8.873.926,8.188A2.675,2.675,0,0,1,1.7,6.207,18.033,18.033,0,0,1,7.036,2.023c4.851-2.388,10.59-2.648,17.9-.852,4.036.981,5.8,1.685,6.313,2.518.278.444,0,1.648-.389,1.666-.278,0,.37.315,1.981.926.426.167.333.259-1.481,1.592-7.35,5.425-11.775,7.517-17.478,8.295-.907.13-1.426.241-1.148.259.667.019,3.629,2.222,4.851,3.592A20.328,20.328,0,0,1,22.4,30.239a9.2,9.2,0,0,1,.2,2.166c-.056.3-.037.5.055.444a51,51,0,0,1,.111,5.406,43.505,43.505,0,0,1-.5,8.517c-.259,1.666-.518,3.055-.555,3.11C21.662,49.92,20.125,48.476,18.293,46.68Z" transform="translate(22.125 8.164)" fill="#fff"/>
      <path id="Path_23-2" data-name="Path 23" d="M23.075,24.138c-7.369-1.666-12.053-3.5-15.441-6.017C3.172,14.788.969,10.9.154,4.919-.031,3.6-.049,3.031.1,2.883a1.541,1.541,0,0,0,.241-.778C.432.809,1.265.2,3.135.032c3.092-.259,7.276,1.092,10.59,3.425a27.868,27.868,0,0,1,5.406,5.517,45.251,45.251,0,0,1,4.11,7.054c1.574,3.129,1.852,4,1.407,4.684-.148.222-.185.222-.185.019,0-.148-.056-.222-.111-.167a9.524,9.524,0,0,0,.667,2.092,18.758,18.758,0,0,1,.722,2.018C25.7,24.693,24.5,24.452,23.075,24.138Z" transform="translate(2.937 16.857)" fill="#fff"/>
      <path id="Path_24-2" data-name="Path 24" d="M8.7,16.519A23.168,23.168,0,0,1,4.3,15.167,24.844,24.844,0,0,1,0,12.723a8.618,8.618,0,0,1,.648-1.2c.352-.592.555-1.092.463-1.129C1,10.353.926,9.928.926,9.446c0-.981.555-2.018,1.888-3.481A19.638,19.638,0,0,1,14.571.152c4.073-.537,12.886.426,15.441,1.7a1.443,1.443,0,0,1,.889,1.87,1.739,1.739,0,0,1-.389.537c-.093.056.389.259,1.055.426a3.145,3.145,0,0,1,1.185.463,8.532,8.532,0,0,1-1.2,1.129c-.667.555-1.981,1.666-2.907,2.462a49.767,49.767,0,0,1-8.313,5.573,20.977,20.977,0,0,1-9.387,2.314C9.961,16.611,8.961,16.556,8.7,16.519Z" transform="translate(0 0)" fill="#fff"/>
    </g>
    <g id="Flag_of_Turkey" transform="translate(29364.803 353.638) rotate(-90)">
      <path id="Path_55" data-name="Path 55" d="M83.459,46.8,125.79,33.05,99.627,69.058V24.548L125.79,60.555Zm2.886,25.025a46.8,46.8,0,1,1,0-50.051,37.439,37.439,0,1,0,0,50.051Z" transform="translate(348.71 -30114.803) rotate(90)" fill="#fff"/>
    </g>
  </g>
</svg>
