<svg xmlns="http://www.w3.org/2000/svg" width="192.439" height="161.367" viewBox="0 0 192.439 161.367">
  <g id="header-logo" transform="translate(-1 -1)">
    <path id="Path_4" data-name="Path 4" d="M161.3-565.43c0,.777-2.459,10.161-3.43,12.944a12.473,12.473,0,0,1-2.686,4.757c-1.553,1.812-2.395,3.43-5.7,10.776-2.136,4.757-3.948,8.8-4.013,9-.227.647,2.395-.032,5.63-1.391,3.721-1.618,6.148-1.877,7.669-.841,1.133.744,2.88,4.239,3.074,6.181.1.809.1,1.456,0,1.456a18.793,18.793,0,0,1-2.233-.971,8.587,8.587,0,0,0-6.439-.615c-1.456.518-1.424.421-.68,1.489.356.485,1.035,1.521,1.489,2.265,1.844,3.009,5.922,3.657,11.682,1.844,3.689-1.133,6.375-1.327,7.928-.55.906.453,1.424,1.133,2.492,3.333.744,1.521,1.424,2.88,1.521,3.074.1.162.485-.1.874-.582,1.133-1.488,1.974-1.618,4.757-.841,2.427.68,3.171.68,6.763.1,1.715-.259,1.747.032.55,2.589a11.733,11.733,0,0,1-6.148,5.533l-2.427,1.1.647,1.23c.809,1.618,1.715,2.395,4.174,3.624,1.683.841,2.039,1.165,1.942,1.747-.1.777-2.621,2.815-3.495,2.815a6.2,6.2,0,0,1-2.136-1.133,24.1,24.1,0,0,0-7.7-3.721l-2.3-.582-.485,1.327c-.712,1.877-2.168,2.815-4.5,2.815-1.877,0-2.2.129-5.372,2.071-2.88,1.78-3.592,1.65-11.229-2.233-6.828-3.462-10.42-5.7-13.3-8.284-1.035-.906-2.006-1.553-2.136-1.391-.55.615-5.177,11.229-5.016,11.487a1.018,1.018,0,0,0,.777.291c1.165,0,8.478,2.265,10.84,3.365a29.269,29.269,0,0,1,13.2,11.876c.68,1.133,2.233,1.812,4.595,2.071,1.974.194,2.2.162,8.9-1.78a17.718,17.718,0,0,1,17.927,4.53,19.11,19.11,0,0,1,4.757,9.028c.712,2.88.744,6.7.065,7.96-.291.485-.421.291-.906-1.327a23.062,23.062,0,0,0-1.035-2.88c-.518-1.035-2.977-3.721-3.4-3.721a8.151,8.151,0,0,0,1.035,2.362,18.577,18.577,0,0,1,1.942,13.85c-.874,3.236-.841,4.951.065,5.792a2.5,2.5,0,0,0,1.359.647c.68.032.68.032.032.518-.809.615-2.718.421-3.818-.388-1.294-.971-1.877-2.265-2.136-4.6l-.227-2.168L184.5-448a7.785,7.785,0,0,0,.324,6.278c1.521,3.689,1.133,6.407-1.262,8.834-1.035,1-3.721,2.459-4.045,2.136a3.914,3.914,0,0,1,.841-1.521,7.894,7.894,0,0,0,1.2-2.492,5.142,5.142,0,0,0-1.294-4.271l-.777-.712-.129,2.2a10.347,10.347,0,0,1-1.1,4.3,10.094,10.094,0,0,1-5.242,5.566,8.343,8.343,0,0,1-4.919,1.068,16.694,16.694,0,0,1-3.4-.259c-.518-.227-.291-.388,1.294-.906,2.265-.68,4.563-2.492,5.21-4.077a6.48,6.48,0,0,0,.421-2.427c0-1.23-.065-1.327-.388-.777a10.19,10.19,0,0,1-14.756,3.074c-1.618-1.165-1.715-1.683-.259-1.424a5.207,5.207,0,0,0,4.53-1.456,8.386,8.386,0,0,0,1.327-3.754,16.5,16.5,0,0,1,1.165-3.915c.582-1,.582-1.068.065-1.068-1.1,0-2.071,1.068-3.3,3.721-1.068,2.2-1.489,2.783-2.459,3.236a3.273,3.273,0,0,1-4.142-.841c-1.2-1.391-1.035-1.715.324-.777,1.456,1,1.812,1,2.848.065.68-.582.906-1.2,1.165-3.139.68-4.886,1.909-6.957,5.63-9.449,3.2-2.136,4.757-3.527,5.728-5.08a9.133,9.133,0,0,0,.938-1.683,8.561,8.561,0,0,0-2.362,1,7.772,7.772,0,0,0-3.106,2.362c-.938,1.424-1.327,1.262-1.327-.485a7.182,7.182,0,0,1,2.751-5.275c1.715-1.424,2.88-3.883,2.556-5.5a7.048,7.048,0,0,0-3.559-4.433c-1.521-.809-5.469-1.812-5.825-1.489a12.815,12.815,0,0,0,.194,2.945c1.133,9.255-3.2,16.05-14.238,22.2a17.633,17.633,0,0,0-3.171,2.168q-2.621,2.961,4.66,10.484a26.272,26.272,0,0,1,3.527,4.174c.453,1.424-.129,2.945-1.683,4.466-1.489,1.456-4.174,3.009-5.113,3.009-1.165,0-5.792,1.812-11.034,4.336-4.142,2.006-5.986,3.106-7.378,4.368-2.427,2.2-3.3,2.524-4.239,1.65-1.359-1.294-3.074-.356-3.074,1.715a5.931,5.931,0,0,1-2.071,3.915,13.564,13.564,0,0,1-6.892,1.391c-3.592-.291-3.818-1.262-1.294-5.566,1.586-2.718,1.812-2.977,3.818-4.045a23.77,23.77,0,0,0,4.433-3.3c2.265-2.136,2.33-2.168,6.925-3.624,5.177-1.65,10.355-3.657,12.393-4.886,1.618-.938,1.974-1.844,1.456-3.786-.421-1.489-3.074-4.53-3.851-4.4-.615.129-.906,1.359-.971,4.013a4.835,4.835,0,0,1-2.783,4.789c-1.2.615-1.844.68-8.9.712-8.575.032-10.84.388-12.944,2.071-1.327,1.068-2.589,1.262-3.236.485a1.635,1.635,0,0,0-2.168-.129c-.259.259-.324,1.1-.194,2.427l.194,2.071-1.133.453a22.965,22.965,0,0,1-4.11,1.035c-3.4.615-5.6.388-5.792-.615-.162-.809,1.327-3.754,2.848-5.7s7.184-6.731,8.737-7.41c.809-.356,2.945-.55,7.766-.744,6.828-.227,7.637-.356,9.967-1.553,1.618-.841,2.492-2.1,3.009-4.466.55-2.427,0-3.98-2.848-8.09a48.647,48.647,0,0,1-3.689-6.116c-1.909-4.013-1.456-3.818-9.481-4.013a53.091,53.091,0,0,0-7.41.1c-.453.227-.55.712-.55,3.3,0,2.686-.065,3.106-.615,3.4-.874.453-3.009.421-5.177-.129a33.928,33.928,0,0,0-3.915-.68c-5.275-.518-11.973-3.333-11.973-5.048,0-.971.938-1.359,4.077-1.65,3.2-.291,5.663-1.035,5.113-1.553a18.311,18.311,0,0,0-3.042-.971,63.35,63.35,0,0,1-12.426-4.919c-3.689-1.844-3.915-1.909-5.21-1.586a10.911,10.911,0,0,1-4.239-.065,44.767,44.767,0,0,0-5.307-.324c-1.327.032-5.889.1-10.1.129l-7.669.065.162,1.65c.291,2.621.194,2.556,2.492,2.33,2.459-.259,3.333.129,4.336,1.909a22.076,22.076,0,0,1,2.039,7.9v1.747l-1.618-.162a16.21,16.21,0,0,1-4.66-1.65c-2.751-1.327-3.171-1.65-4.174-3.236a15.009,15.009,0,0,0-2.686-3.009c-2.718-2.2-3.333-2.945-3.754-4.466a4.241,4.241,0,0,0-.582-1.488,57.176,57.176,0,0,0-7.345,4.4c-3.074,2.2-4.563,3.592-5.177,4.886-.68,1.456-1.65,1.812-3.527,1.327-1.359-.388-1.521-.356-1.942.227a1.752,1.752,0,0,0-.291,1.294c.582,1.909.55,3.236-.129,4.11-1.035,1.294-3.915,2.233-6.99,2.3-4.627.1-5.08-.356-3.527-3.4a18.187,18.187,0,0,1,4.822-6.375,18.647,18.647,0,0,0,2.815-2.653c2.815-3.527,3.074-3.721,5.986-4.822,5.792-2.168,8.769-4.013,12.07-7.443a14.073,14.073,0,0,1,2.2-2.006c.356-.1.259-1-.485-4.3a42.334,42.334,0,0,1-.874-5.663,6.75,6.75,0,0,1,4.724-6.181c1.133-.291,1.877-.227,4.757.453a49.369,49.369,0,0,0,5.436,1.035c2.362.259,2.427.194,2.848-3.4.582-4.951,2.006-8.672,4.5-11.746,1.974-2.427,2.33-3.236,2.945-6.537.324-1.586,1.2-4.854,1.974-7.281.744-2.395,1.489-5.016,1.618-5.825l.227-1.456L54.8-520.483a16.214,16.214,0,0,0-1.877,2.265c-.065.194-.615,1.359-1.262,2.621-.938,1.844-1.133,2.556-1.068,3.883.194,3.559.162,3.915-.582,4.983-.906,1.262-2.589,2.1-3.2,1.586-.227-.227-2.912.194-3.851.615-1.974.809-3.074,0-6.148-4.5l-.809-1.2.518-3.754c.68-4.854.68-10.776.032-13.105-.906-3.2-.906-3.915-.032-7.313.938-3.527.874-4.3-.453-5.469-1.618-1.424-1.942-3.365-1.165-7.022a12.941,12.941,0,0,0,.291-3.495c-.227-1.586.162-1.65,1.424-.227a8.524,8.524,0,0,1,1.877,3.915l.194.938.809-1.1c.809-1.068.809-1.2.615-4.433a10.982,10.982,0,0,1,.032-3.3,12.425,12.425,0,0,1,2.136,1.844c1.844,1.812,1.877,1.844,1.877.938a5.144,5.144,0,0,1,2.751-4.239c2.006-1.294,2.492-1.844,2.945-3.365l.324-1.165.582,1.1a4.383,4.383,0,0,1,.421,2.848l-.194,1.715,1-.971c1.877-1.909,3.3-2.395,6.925-2.395,3.106-.032,3.3-.065,4.466-1,3.365-2.686,5.048-3.3,6.763-2.395.647.356.615.388-.421.744-.809.259-1.359.809-2.136,2.1a11.066,11.066,0,0,1-1.747,2.362c-.712.582-.712.582.938.582a7.852,7.852,0,0,0,5.339-2.071c1.974-1.618,3.236-2.136,5.016-2.136a6.719,6.719,0,0,1,4.3,1.391c1.327.874,1.1,1.1-.906.938a5.065,5.065,0,0,0-2.621.291c-.841.453-2.945,4.174-2.362,4.174a6.376,6.376,0,0,0,1.586-1.133,6.885,6.885,0,0,1,1.456-1.133c.388,0,.194,2.3-.291,3.43l-.485,1.165,1.391-.259c4.563-.777,8.963.712,11.358,3.851.874,1.133,1.942,3.754,1.65,4.045-.1.1-.712-.356-1.391-1a7.957,7.957,0,0,0-2.1-1.489c-1.165-.453-3.689-.453-3.948-.032-.1.162.065.324.388.324,1.23,0,3.915,1.553,4.822,2.783a16.272,16.272,0,0,0,4.077,4.207,6.114,6.114,0,0,0,5.048-.194c1.294-.809,1.359-.809,1.359.032a4.07,4.07,0,0,1-1.23,1.909L98-535.562l.744.841a5.489,5.489,0,0,1,.129,6.7l-.615.744-.227-1.424c-.421-2.556-3.2-4.433-6.083-4.142l-1.035.1,1.553.777c3.074,1.521,4.045,3.883,2.168,5.274-1.068.777-1.262,1.877-.485,2.524.68.582,2.945.259,4.886-.68,1.488-.744,1.683-1,3.236-4.11a15.858,15.858,0,0,1,6.407-7.443l2.2-1.521-1.23-.162c-1.23-.162-1.262-.194-1.812-2.233a8.6,8.6,0,0,0-1.1-2.653c-.55-.582-.518-.971.065-3.624.194-.809.129-.874-.938-.874-2.168,0-2.3-.259-.874-1.844a6.745,6.745,0,0,0,1.294-1.844,15.439,15.439,0,0,1,1.1-2.686,21.664,21.664,0,0,1,4.336-5.7,31.536,31.536,0,0,0,3.462-4.077c.324-1.068.744-.809,1.133.68a20.249,20.249,0,0,0,2.1,3.98c2.686,3.98,3.721,6.957,3.721,10.517,0,2.848,1.683,6.6,3.333,7.345,5.533,2.589,5.76,2.718,7.281,4.724,2.912,3.883,8.122,8.316,9.772,8.316.615,0,.647-.1,5.469-10.743a71.577,71.577,0,0,0,3.948-9.87c.809-4.5,1.78-6.472,6.763-14.109C160.714-565.818,161.3-566.433,161.3-565.43ZM122.11-514.723c-2.751,3.462-3.236,5.339-2.459,9.74l.388,2.168,1.2-.841c1.359-.971,3.689-1.359,4.789-.777.647.356.712.582.582,1.974a13.466,13.466,0,0,1-1.2,3.689,15.387,15.387,0,0,0-1.035,2.33c0,.162.55.356,1.23.485.68.162,1.553.324,1.942.421.841.194,1.327-.615,4.789-8.446,2.395-5.372,2.395-5.145.194-7.637a7.952,7.952,0,0,0-3.851-2.459,25.418,25.418,0,0,1-3.624-1.65,6.967,6.967,0,0,0-1.359-.68A9.027,9.027,0,0,0,122.11-514.723ZM34.449-478.255a10.88,10.88,0,0,0-.129,4.692c.129.324.453.453.906.356.356-.065,2.459-.453,4.627-.841a17.449,17.449,0,0,0,3.98-.906,38.919,38.919,0,0,0-5.825-3.527C36.617-479.064,34.837-478.966,34.449-478.255Z" transform="translate(0.814 566.875)" fill="#fff"/>
  </g>
</svg>
