<svg xmlns="http://www.w3.org/2000/svg" width="179" height="179" viewBox="0 0 179 179">
  <g id="favicon" transform="translate(1229 -174)">
    <path id="Path_60" data-name="Path 60" d="M0,0H179V179H0Z" transform="translate(-1229 174)" fill="#fff"/>
    <path id="header-logo" d="M85.918,68.487a.249.249,0,0,0,.285-.29,1.175,1.175,0,0,0-.561-.6,2.885,2.885,0,0,1-1.212-1.89.3.3,0,0,1,.284-.376,12.338,12.338,0,0,0,1.63.209.257.257,0,0,0,.16-.439,3.211,3.211,0,0,0-.967-.662c-1.786-.9-3.588-1.762-5.384-2.639a1.55,1.55,0,0,1-.624-.388.289.289,0,0,1,.059-.391,6.046,6.046,0,0,1,1.545-1.058,1.073,1.073,0,0,1,1.343.262c.16.172.332.333.506.492.154.14.309.329.548.189.222-.13.2-.367.161-.572-.182-.916-.274-1.882-1.4-2.218a1.209,1.209,0,0,1-.488-.308c-.2-.192-.076-.507.195-.445a5.9,5.9,0,0,1,.575.184.281.281,0,0,0,.385-.246,1.126,1.126,0,0,0-.561-.967,3.692,3.692,0,0,0-2.06-.625,13.369,13.369,0,0,1-2.128-.225c-.25-.051-.347-.342-.127-.47.287-.167.621-.23.92-.368.238-.11.17-.411-.083-.477a45.656,45.656,0,0,0-4.637-.555c-.176-.028-.325-.2-.225-.347a1.066,1.066,0,0,1,.327-.249,1.782,1.782,0,0,0,.288-.2.255.255,0,0,0-.11-.4,10.724,10.724,0,0,1-2.316-1.167,4.247,4.247,0,0,0-2.277-.985c-.239-.031-.36-.235-.147-.349s.1-.359-.137-.366c-3.8-.117-7.486.033-10.862,2.136a.3.3,0,0,1-.424-.063c-.307-.5.071-1.068.14-1.635a.249.249,0,0,0-.361-.254,1.508,1.508,0,0,0-.768.893,6.156,6.156,0,0,0-.168,4.343c.116.323.231.637-.024.93-1.611,1.856-2.316,4.182-3.29,6.366-1.427,3.2-2.624,6.5-3.931,9.75a.882.882,0,0,0,.268,1.075c.9.826,1.779,1.683,2.724,2.456a2.658,2.658,0,0,0,2.953.519,3.552,3.552,0,0,1,1.159-.284,3.613,3.613,0,0,0,2.887-2.2.865.865,0,0,1,1.115-.453c.45.178.185.624.047.921a34.6,34.6,0,0,1-2.632,4.091c-1.258,1.931-2.68,3.8-3.144,6.111a7.963,7.963,0,0,1-2.494,4.136,7.677,7.677,0,0,0-1.524,3,13,13,0,0,0-.916,4.892c.04,1.089-.25,1.325-1.344,1.255a10.129,10.129,0,0,1-3.567-1.046,3.25,3.25,0,0,0-2.589-.04,6.909,6.909,0,0,0-2.71,1.861,1.766,1.766,0,0,0-.354,1.976,1.786,1.786,0,0,1-.506,2.3,8.188,8.188,0,0,0-1.435,2,2.491,2.491,0,0,0,.059,2.81,13.134,13.134,0,0,1,1.765,3.821,34.483,34.483,0,0,1,1.447,6.1,1.388,1.388,0,0,1,.024.556,1.764,1.764,0,0,0,.754,2.029,5.1,5.1,0,0,1,1.421,1.906,16.65,16.65,0,0,0,1.616,2.563c.672,1.022,1.371,2.027,2.077,3.025.558.789.954.825,1.656.152a6.344,6.344,0,0,0,1.826-4.81A13.073,13.073,0,0,0,50.413,120c-.242-1.157-.815-1.66-1.976-1.493a11.428,11.428,0,0,1-2.458-.062.392.392,0,0,1-.246-.085.157.157,0,0,1-.046-.112c-.012-.465.86-.62.745-1.152-.045-.21-.03-.462.183-.49a1.912,1.912,0,0,1,.816.13,6.036,6.036,0,0,1,2.718,1.892,6.342,6.342,0,0,0,4.01,1.707,18.072,18.072,0,0,0,2.88.207c.684,0,1.067-.34,1.081-.947a8.869,8.869,0,0,0-1.8-6.218c-.892-1.063-2.115-.857-3.28-.794a4.14,4.14,0,0,0-1.7.433,1.084,1.084,0,0,1-.371.128.208.208,0,0,1-.171-.353c.147-.175.342-.321.514-.515s.01-.452-.247-.462c-1-.039-1.947-.178-2.291-1.358a.2.2,0,0,1,.033-.206.322.322,0,0,1,.277-.057,14.277,14.277,0,0,1,2.76.525,12.217,12.217,0,0,0,4.7.738,2.4,2.4,0,0,1,1.791.638c.479.446.976.872,1.473,1.3a.411.411,0,0,1,.025.57,1.8,1.8,0,0,0,.715,2.921,4.633,4.633,0,0,0,2.176.518,11.872,11.872,0,0,1,3.682.642c1.83.551,3.336,1.706,5.125,2.264a.664.664,0,0,1,.4.252.3.3,0,0,1-.041.368c-.673.778-1.376,1.605-2.1,2.415a17.529,17.529,0,0,1-2.71,2.362,5.508,5.508,0,0,0-1.783,2.813c-.186.528.034.731.635.6a3.83,3.83,0,0,0,2.568-1.6c1.409-2.213,3.5-3.8,5.162-5.783a1.183,1.183,0,0,1,1.389-.328,58.6,58.6,0,0,0,7.728,1.572c.652.088,1.311.127,1.958.241.778.137.954.422.775,1.178a9.316,9.316,0,0,0-.2,2.383,2.706,2.706,0,0,0,.539,1.581c1.585,2.1,3.216,4.173,4.787,6.287a10.64,10.64,0,0,0,4.149,3.3,18.025,18.025,0,0,1,3.585,1.957,2.664,2.664,0,0,1,.834,3.272,13.115,13.115,0,0,1-2.287,3.291,26.023,26.023,0,0,1-4.9,4.547,2.589,2.589,0,0,0-1.163,2.221,2.8,2.8,0,0,1-.766,1.836,8.834,8.834,0,0,0-1.656,4.071c-.318,1.52-.214,1.587,1.314,1.232,2.149-.5,4.324-.883,6.456-1.461,1.01-.274,1.063-.366.479-1.228-.2-.3-.254-.376-.209-.611.035-.179.224-.309.374-.206.263.18.257.55.376.839a.208.208,0,0,0,.21.139c.394-.049.517-.753.911-.73.21.012.456.018.483-.191a1.615,1.615,0,0,0,.012-.183c0-.235.232-.318.451-.232.392.154.544-.054.625-.7a2.788,2.788,0,0,0-.113-1.053c-.066-.255.263-.432.346-.683a.79.79,0,0,0-.042-.432,7.89,7.89,0,0,0-.906-2.059.6.6,0,0,1-.086-.708,11.356,11.356,0,0,1,5.282-5.292,8.144,8.144,0,0,1,2.147-.662,3.318,3.318,0,0,0,2.7-3.234,2,2,0,0,0-.672-1.358c-.487-.485-1.117-.795-1.616-1.248a10.657,10.657,0,0,1-3.536-4.984c-.11-.407-.311-.9.173-1.222.857-.572,1.381-.561,1.993-.108a11.919,11.919,0,0,1,3.295,3.619,14.749,14.749,0,0,0,3.449,3.508q1.314,1.123,2.617,2.26a2.508,2.508,0,0,1,.762,1.243,4.649,4.649,0,0,0,1.194,1.969c1.278,1.317,2.79,2.4,3.938,3.837a25.335,25.335,0,0,1,3.291,5.719c.875,1.982,0,3.746-.069,5.606-.016.443-.13.882-.164,1.326-.048.62.263.921.882.9,1.832-.055,3.665-.09,5.5-.174.848-.039,1.69,0,2.535.031.8.032.932-.143.889-.95a5.143,5.143,0,0,0-.448-1.512.272.272,0,0,1,.319-.381,7.141,7.141,0,0,1,1.213.675.283.283,0,0,0,.426-.25,6.408,6.408,0,0,0-.72-2.207c-.333-.919-1.215-.981-1.913-1.345a.363.363,0,0,1-.171-.383,1.747,1.747,0,0,0-1.1-1.89,6.772,6.772,0,0,1-1.676-1.488,20.032,20.032,0,0,1-5.048-8.775,1.655,1.655,0,0,1-.12-.477c.062-1.365-.906-2.146-1.7-3.029a22.034,22.034,0,0,1-2.171-2.405,10.84,10.84,0,0,1-1.584-5.059,1.216,1.216,0,0,1,.164-.812c1.446-2.257,1.863-4.846,2.373-7.4a19.679,19.679,0,0,0-.128-8.181c-.167-.756.189-1.053.958-.848a3.231,3.231,0,0,1,1.354.869,17.845,17.845,0,0,1,5,7.327,24.861,24.861,0,0,0,3.32,6.275,4.866,4.866,0,0,0,1.972,1.456c.165.082.4.025.382-.158a.555.555,0,0,0-.073-.217c-.12-.222.056-.374.281-.259a6.46,6.46,0,0,1,1.315.918,8.449,8.449,0,0,0,3.318,1.643,1.693,1.693,0,0,0,.907.038c1.481-.442,2.93.063,4.393.09a6.644,6.644,0,0,0,1.508,0,.244.244,0,0,0,0-.485,15.115,15.115,0,0,0-1.574-.228,37.272,37.272,0,0,1-3.659-.733,1.533,1.533,0,0,1-1.262-1.245c-.019-.121.038-.257.16-.266a1.069,1.069,0,0,1,.413.124,29,29,0,0,0,10.925,1.756,39.086,39.086,0,0,1,4.858.206,3.171,3.171,0,0,0,1.523-.2c.366-.153.72-.33.6-.7-.074-.219-.056-.483.159-.567a3.3,3.3,0,0,1,1.907-.062c1.149.23,2.281.552,3.419.834a1.124,1.124,0,0,0,.735-.03c.134-.058.2-.232.089-.327-.135-.115-.344-.1-.5-.168-.351-.146-.851-.059-.77-.727.027-.219-.371-.325-.606-.42-.469-.191-.93-.4-1.4-.6a.381.381,0,0,1,.063-.724c.593-.1,1.187-.164,1.788-.2.719-.049,1.456.074,2.181-.028.318-.045.324-.425.021-.532a53.991,53.991,0,0,1-5.191-1.713,46.294,46.294,0,0,0-4.51-1.815.338.338,0,0,1,.063-.662c1.186-.114,2.372-.133,3.548-.186.165-.007.342-.148.247-.283a.482.482,0,0,0-.22-.144,8.275,8.275,0,0,0-3.976-.7,48.747,48.747,0,0,1-6.269-.1c-.5-.023-.894-.246-.889-.874a.755.755,0,0,0-.13-.427c-.166-.255-.119-.623.182-.669a19.072,19.072,0,0,0,2.361-.293c.173-.05.285-.25.157-.377a.98.98,0,0,0-.532-.182c-1.773-.38-3.588-.428-5.379-.666a8.2,8.2,0,0,1-4.226-1.954.661.661,0,0,1-.251-.768,3,3,0,0,0-.392-1.9,7.343,7.343,0,0,0-3.669-3.658,3.9,3.9,0,0,1-.83-.429c-.193-.147-.086-.409.134-.307s.427.281.673.215a.207.207,0,0,0,.145-.143c.066-.242-.15-.392-.268-.569-1.274-1.906-3.227-2.329-5.331-2.524A18.94,18.94,0,0,0,120.2,109.77c-1.975.987-1.494,1.09-3.094-.542-1.714-1.747-3.407-3.514-5.109-5.271s-3.969-2.46-6.173-3.275c-.22-.081-.447-.145-.667-.226-.138-.051-.237-.263-.141-.376l.01-.009c.956-.815,1.221-2.039,1.824-3.061a1.172,1.172,0,0,0-.021-1.261,9.465,9.465,0,0,0-3.666-3.907c-.583-.327-.606-.616-.135-1.108q5.518-5.762,11.039-11.52a2.132,2.132,0,0,1,1.036-.559A3.638,3.638,0,0,0,117.1,77.42a3.048,3.048,0,0,1,1.48-.776,7.844,7.844,0,0,0,2.994-2.059c.67-.733.8-1.063.286-1.942a1.188,1.188,0,0,1,.247-1.656q4.157-4.327,8.265-8.7a1.106,1.106,0,0,1,1.129-.335,5.29,5.29,0,0,0,4.523-.979,3.37,3.37,0,0,0,1.166-1.885,6.36,6.36,0,0,1,.713-1.909,1.448,1.448,0,0,1,1.61-.756c3.661.7,6.873-.4,9.832-2.464a17.4,17.4,0,0,1,10.569-3.34c1.569.037,3.134.265,4.7.39l.087.009c.3.032.289-.286,0-.382-.687-.23-1.341-.45-2-.663-3.062-1-6.114-2.024-9.192-2.969a18.54,18.54,0,0,0-6.128-.742,2.888,2.888,0,0,1-.561-.044.356.356,0,0,1-.143-.595c5.5-5.871,11.04-11.6,16.471-17.572.215-.237.063-.495-.174-.28l-.034.03q-5.639,4.922-10.97,10.176c-2.445,2.414-4.9,4.815-7.326,7.251a1.28,1.28,0,0,1-1.578.318,11.041,11.041,0,0,1-2.957-2.022,5.246,5.246,0,0,0-2.313-1.292,1.754,1.754,0,0,0-1.632.418,2.9,2.9,0,0,1-4.414-.256,22.11,22.11,0,0,0-6.307-4.572,2.7,2.7,0,0,0-1.8-.125c-.6.1-1.189.278-1.781.425a3.646,3.646,0,0,0-2.878,2.3,5.484,5.484,0,0,1-3.574,3.38A40.11,40.11,0,0,0,108.6,47a8.7,8.7,0,0,0-4.452,5.566c-.248,1.072-.641,1.306-1.759,1.328-.306.006-.613.02-.918,0-.726-.053-1.408-.094-1.623.865-.076.342-.41.312-.706.183a20.744,20.744,0,0,0-3.3-1,1.14,1.14,0,0,0-1.184.221,4.433,4.433,0,0,1-4.37,1.1c-.184-.041-.374-.06-.551-.119-.544-.18-.707.075-.759.578-.205,1.962-.448,3.921-.819,5.86-.092.483-.274.949-.383,1.43-.157.695.076.93.765.791a4.515,4.515,0,0,1,2.7,0,1.042,1.042,0,0,1,.719,1.086c-.006.555.089,1.094-.578,1.447-1.63.863-3.407,1.358-5.158,2.171-.729.462-1.6.639-1.7,1.629-.017.165-.29.253-.474.23a.5.5,0,0,1-.442-.48,2.931,2.931,0,0,0-.527-1.35,2.183,2.183,0,0,1-.306-.828.248.248,0,0,1,.214-.273,1.7,1.7,0,0,1,.859.292A6.476,6.476,0,0,0,85.918,68.487Zm22.626-3.22c-1.9-1.014-3.713-2.38-6.008-1.739a.376.376,0,0,1-.473-.255,1.029,1.029,0,0,0-.114-.3,1.588,1.588,0,0,1,.037-1.847,1.364,1.364,0,0,0,.209-1.019c-.185-.769.254-1.118.815-1.492a6.4,6.4,0,0,0,2.921-4.223c.294-1.515.933-1.718,2.216-.84,1.844,1.261,3.7,2.5,5.642,3.614a1.32,1.32,0,0,0,1.452.016c.691-.4,1.4-.781,2.1-1.162a1.45,1.45,0,0,1,1.591.09c.892.567,1.844,1.042,2.724,1.626a1.762,1.762,0,0,0,2.414-.076c.428-.384.808-.228,1.158.145a23.923,23.923,0,0,0,2.186,2.1c.314.26.682.457,1,.746a.336.336,0,0,1,.013.472c-.1.109-.185.211-.281.308q-3.781,3.853-7.567,7.7c-1.014,1.028-1.031,1.04-2.287.393a.79.79,0,0,0-1.142.258,5.915,5.915,0,0,0-.871,1.205.441.441,0,0,1-.654.193,1.621,1.621,0,0,0-1.434-.5.484.484,0,0,1-.575-.229c-.19-.409-.326-.409-.981-.429-.269-.008-.655.127-.772-.182a6.968,6.968,0,0,0-1.7-2.039c-.335-.373-.449-.711-.014-1.08a.463.463,0,0,0,.18-.256.273.273,0,0,0-.159-.284C109.68,65.914,109.147,65.615,108.544,65.268ZM103.386,79.95c.154-.207.294-.428.464-.621a5.368,5.368,0,0,0,1.34-2.267,3.251,3.251,0,0,1,.858-1.5.391.391,0,0,1,.58.092,2.321,2.321,0,0,0,1.474.814,1.245,1.245,0,0,1,.892.635,2.615,2.615,0,0,0,1.506,1.2,1.373,1.373,0,0,1,.615.316.3.3,0,0,1-.035.4l-7.39,7.7a.426.426,0,0,1-.7-.22,10.722,10.722,0,0,0-1.819-3.4.385.385,0,0,1,.166-.55,1.138,1.138,0,0,0,.751-1.217c-.02-.207.189-.31.334-.427A4.719,4.719,0,0,0,103.386,79.95Zm-58.948,33.1c-.156-.393-.325-.781-.463-1.179-.048-.139.213-.258.3-.138a9.182,9.182,0,0,1,1.757,3,.26.26,0,0,1-.432.27A6.391,6.391,0,0,1,44.438,113.048Z" transform="translate(-1240.523 168.31)"/>
  </g>
</svg>
