<svg xmlns="http://www.w3.org/2000/svg" width="346.186" height="365.814" viewBox="0 0 346.186 365.814">
  <path id="header-logo" d="M252.637,138.185a.674.674,0,0,1-.772-.785,3.183,3.183,0,0,1,1.52-1.63,7.814,7.814,0,0,0,3.282-5.118.8.8,0,0,0-.768-1.017c-1.452.04-2.9.717-4.414.566a.7.7,0,0,1-.432-1.19,8.7,8.7,0,0,1,2.619-1.792c4.838-2.427,9.718-4.771,14.581-7.148a4.2,4.2,0,0,0,1.69-1.051.784.784,0,0,0-.161-1.058A16.374,16.374,0,0,0,265.6,115.1a2.906,2.906,0,0,0-3.638.709c-.433.466-.9.9-1.371,1.332-.417.379-.837.89-1.484.511-.6-.353-.546-1-.436-1.549.492-2.482.742-5.1,3.8-6.008a3.276,3.276,0,0,0,1.323-.833c.544-.52.206-1.373-.528-1.206a15.977,15.977,0,0,0-1.556.5.762.762,0,0,1-1.042-.667,3.05,3.05,0,0,1,1.52-2.62,10,10,0,0,1,5.579-1.693,36.21,36.21,0,0,0,5.764-.61c.678-.138.94-.925.343-1.273-.776-.451-1.682-.622-2.493-1-.644-.3-.46-1.112.226-1.292,4.182-1.1,8.462-.85,12.56-1.5.478-.076.88-.539.61-.94a2.887,2.887,0,0,0-.886-.675,4.826,4.826,0,0,1-.779-.554.691.691,0,0,1,.3-1.072c2.072-1.06,4.432-1.581,6.272-3.16a11.5,11.5,0,0,1,6.166-2.667c.648-.083.975-.637.4-.945s-.265-.972.372-.992c10.29-.318,20.276.089,29.419,5.784a.819.819,0,0,0,1.148-.171c.831-1.354-.193-2.893-.378-4.428a.675.675,0,0,1,.979-.688,4.084,4.084,0,0,1,2.079,2.418,16.672,16.672,0,0,1,.456,11.762c-.313.875-.625,1.724.064,2.518,4.364,5.028,6.274,11.326,8.91,17.243,3.864,8.674,7.106,17.6,10.647,26.407a2.389,2.389,0,0,1-.727,2.912c-2.444,2.237-4.819,4.559-7.379,6.653-2.333,1.909-4.976,2.771-8,1.406a9.62,9.62,0,0,0-3.139-.769c-3.906-.309-6.088-2.864-7.818-5.947a2.341,2.341,0,0,0-3.02-1.228c-1.219.481-.5,1.691-.126,2.494,1.875,4.011,4.731,7.4,7.129,11.081,3.407,5.229,7.259,10.283,8.515,16.551.931,4.643,3.528,8,6.756,11.2,2.19,2.176,3.1,5.257,4.127,8.121a35.214,35.214,0,0,1,2.48,13.249c-.107,2.949.678,3.588,3.641,3.4a27.432,27.432,0,0,0,9.662-2.832,8.8,8.8,0,0,1,7.011-.108,18.713,18.713,0,0,1,7.339,5.04,4.782,4.782,0,0,1,.96,5.353c-1.028,2.458-.752,4.372,1.37,6.233a22.176,22.176,0,0,1,3.887,5.419,6.746,6.746,0,0,1-.16,7.611,35.572,35.572,0,0,0-4.78,10.35,93.394,93.394,0,0,0-3.92,16.516,3.759,3.759,0,0,0-.066,1.506c.8,2.409-.34,4.045-2.042,5.5a13.815,13.815,0,0,0-3.85,5.163c-1.08,2.551-2.874,4.657-4.376,6.942-1.82,2.768-3.712,5.489-5.624,8.194-1.511,2.137-2.583,2.234-4.485.412-3.7-3.549-4.932-8.105-4.946-13.027a35.407,35.407,0,0,1,.435-7.426c.655-3.134,2.208-4.495,5.351-4.044a30.953,30.953,0,0,0,6.657-.167,1.062,1.062,0,0,0,.665-.229.426.426,0,0,0,.124-.3c.032-1.259-2.329-1.68-2.018-3.119.123-.569.081-1.251-.5-1.327a5.179,5.179,0,0,0-2.209.351,16.348,16.348,0,0,0-7.362,5.125c-2.784,3.157-6.868,3.982-10.86,4.623a48.947,48.947,0,0,1-7.8.56c-1.852,0-2.889-.921-2.927-2.565-.144-6.1.769-11.954,4.871-16.84,2.417-2.88,5.728-2.322,8.884-2.151a11.212,11.212,0,0,1,4.6,1.172,2.938,2.938,0,0,0,1,.347.563.563,0,0,0,.463-.955c-.4-.475-.926-.87-1.393-1.4s-.026-1.223.669-1.25c2.708-.106,5.274-.483,6.2-3.679a.54.54,0,0,0-.089-.557.871.871,0,0,0-.749-.155c-2.505.433-5.152.514-7.476,1.422a33.088,33.088,0,0,1-12.724,2,6.5,6.5,0,0,0-4.851,1.727c-1.3,1.209-2.644,2.363-3.99,3.533a1.114,1.114,0,0,0-.068,1.545c2.308,2.789,1.518,6.172-1.936,7.912a12.548,12.548,0,0,1-5.893,1.4,32.155,32.155,0,0,0-9.973,1.738c-4.956,1.491-9.036,4.621-13.881,6.131a1.8,1.8,0,0,0-1.07.682.813.813,0,0,0,.112,1c1.822,2.108,3.727,4.347,5.681,6.542a47.476,47.476,0,0,0,7.34,6.4c2.622,1.945,3.808,4.725,4.828,7.62.5,1.43-.091,1.979-1.721,1.626a10.374,10.374,0,0,1-6.956-4.343c-3.815-5.993-9.492-10.292-13.98-15.664-1.068-1.278-2.3-1.294-3.761-.889a158.709,158.709,0,0,1-20.93,4.257c-1.765.239-3.551.343-5.3.653-2.106.372-2.583,1.143-2.1,3.191a25.231,25.231,0,0,1,.554,6.454,7.328,7.328,0,0,1-1.46,4.281c-4.294,5.7-8.71,11.3-12.966,17.027a28.817,28.817,0,0,1-11.236,8.929c-3.333,1.565-6.764,2.992-9.709,5.3a7.216,7.216,0,0,0-2.26,8.863,35.52,35.52,0,0,0,6.2,8.914A70.481,70.481,0,0,0,236.114,361.7a7.013,7.013,0,0,1,3.149,6.015,7.59,7.59,0,0,0,2.074,4.972c2.672,3.164,3.663,7.087,4.485,11.025.86,4.118.58,4.3-3.558,3.338-5.82-1.352-11.71-2.392-17.485-3.957-2.736-.741-2.879-.99-1.3-3.327.55-.813.688-1.018.565-1.654-.094-.485-.606-.838-1.013-.559-.711.487-.7,1.49-1.018,2.273a.564.564,0,0,1-.569.376c-1.068-.132-1.4-2.039-2.468-1.976-.57.033-1.234.048-1.309-.518a4.377,4.377,0,0,1-.032-.5c-.012-.637-.628-.862-1.221-.628-1.063.418-1.473-.145-1.692-1.894a7.55,7.55,0,0,1,.307-2.851c.178-.692-.713-1.171-.936-1.85a2.14,2.14,0,0,1,.114-1.17,21.37,21.37,0,0,1,2.455-5.576,1.634,1.634,0,0,0,.233-1.917c-3.431-6.125-7.647-11.447-14.307-14.334a22.057,22.057,0,0,0-5.814-1.793,8.987,8.987,0,0,1-7.315-8.759,5.428,5.428,0,0,1,1.819-3.678c1.319-1.314,3.025-2.153,4.376-3.38,4.167-3.783,8.041-7.842,9.576-13.5.3-1.1.841-2.437-.469-3.311-2.32-1.548-3.741-1.52-5.4-.293a32.28,32.28,0,0,0-8.924,9.8c-2.26,3.875-5.947,6.6-9.34,9.5q-3.56,3.042-7.087,6.122a6.794,6.794,0,0,0-2.065,3.366,12.591,12.591,0,0,1-3.234,5.332c-3.46,3.568-7.556,6.507-10.666,10.392a68.618,68.618,0,0,0-8.914,15.488c-2.371,5.369.005,10.147.186,15.183.043,1.2.352,2.388.445,3.59.131,1.679-.712,2.495-2.39,2.445-4.963-.148-9.927-.243-14.885-.47-2.3-.106-4.577-.008-6.865.084-2.16.087-2.524-.386-2.408-2.573a13.931,13.931,0,0,1,1.213-4.094.737.737,0,0,0-.864-1.033,19.345,19.345,0,0,0-3.285,1.827.767.767,0,0,1-1.153-.676c0-2.248,1.246-4.032,1.951-5.978.9-2.49,3.291-2.657,5.181-3.644a.983.983,0,0,0,.463-1.038c-.339-2.391.869-4.03,2.99-5.118,1.881-.964,3.118-2.572,4.539-4.029a54.254,54.254,0,0,0,13.672-23.765,4.483,4.483,0,0,0,.324-1.291c-.168-3.7,2.453-5.812,4.592-8.2,1.949-2.179,4.235-4.029,5.88-6.514,2.762-4.175,3.8-8.842,4.29-13.7a3.292,3.292,0,0,0-.445-2.2c-3.917-6.112-5.047-13.125-6.427-20.055a53.3,53.3,0,0,1,.348-22.158c.453-2.048-.513-2.853-2.594-2.3a8.751,8.751,0,0,0-3.666,2.354c-5.931,5.641-10.936,11.918-13.533,19.845-2.024,6.176-5.348,11.692-8.992,17-1.276,1.858-3.31,2.936-5.34,3.943-.448.222-1.076.068-1.035-.429a1.5,1.5,0,0,1,.2-.588c.324-.6-.153-1.013-.76-.7a17.5,17.5,0,0,0-3.561,2.486,22.883,22.883,0,0,1-8.987,4.451,4.586,4.586,0,0,1-2.457.1c-4.01-1.2-7.936.171-11.9.244a17.993,17.993,0,0,1-4.083-.009.661.661,0,0,1,0-1.313,40.939,40.939,0,0,1,4.263-.618,100.951,100.951,0,0,0,9.911-1.985c2.02-.544,3.157-1.712,3.419-3.372.052-.328-.1-.7-.433-.72a2.9,2.9,0,0,0-1.118.337,78.552,78.552,0,0,1-29.59,4.755,105.863,105.863,0,0,0-13.158.557,8.588,8.588,0,0,1-4.126-.532c-.992-.415-1.95-.893-1.613-1.894.2-.592.151-1.309-.431-1.536a8.947,8.947,0,0,0-5.164-.169c-3.113.624-6.177,1.494-9.261,2.259a3.044,3.044,0,0,1-1.991-.082c-.363-.158-.543-.629-.241-.886.366-.311.931-.28,1.351-.454.95-.4,2.3-.159,2.084-1.97-.072-.594,1-.879,1.642-1.138,1.27-.516,2.518-1.086,3.783-1.63a1.031,1.031,0,0,0-.172-1.961c-1.606-.262-3.216-.444-4.841-.553-1.948-.132-3.944.2-5.907-.076-.862-.122-.879-1.15-.057-1.44,4.693-1.656,9.587-2.529,14.06-4.639A125.4,125.4,0,0,1,64.4,291.3a.914.914,0,0,0-.172-1.794c-3.211-.309-6.424-.359-9.61-.5-.448-.02-.927-.4-.668-.766a1.306,1.306,0,0,1,.6-.391,22.411,22.411,0,0,1,10.768-1.893c5.647.472,11.321,0,16.978-.259,1.361-.062,2.421-.666,2.409-2.367a2.046,2.046,0,0,1,.351-1.156c.449-.691.321-1.687-.493-1.813-2.2-.341-4.373-.205-6.4-.794-.468-.136-.771-.676-.426-1.021a2.655,2.655,0,0,1,1.441-.492c4.8-1.028,9.717-1.158,14.568-1.8a22.208,22.208,0,0,0,11.445-5.293,1.791,1.791,0,0,0,.68-2.08,8.135,8.135,0,0,1,1.061-5.145,19.888,19.888,0,0,1,9.938-9.906,10.56,10.56,0,0,0,2.247-1.161c.523-.4.234-1.108-.364-.832-.614.284-1.156.762-1.824.582a.562.562,0,0,1-.393-.387c-.179-.656.407-1.061.727-1.541,3.451-5.161,8.74-6.309,14.438-6.836,10.082-.932,19.222,1.918,28.091,6.351,5.349,2.674,4.046,2.952,8.38-1.467,4.641-4.731,9.227-9.516,13.838-14.275s10.75-6.663,16.719-8.871c.6-.22,1.21-.393,1.807-.613.375-.138.641-.713.382-1.018a.3.3,0,0,0-.026-.025c-2.59-2.206-3.306-5.522-4.941-8.29a3.174,3.174,0,0,1,.057-3.415,25.634,25.634,0,0,1,9.93-10.581c1.58-.887,1.64-1.669.365-3q-14.944-15.606-29.9-31.2a5.774,5.774,0,0,0-2.806-1.513,9.852,9.852,0,0,1-5.431-3.345c-1-1.286-2.612-1.56-4.009-2.1a21.246,21.246,0,0,1-8.108-5.577c-1.815-1.986-2.156-2.878-.774-5.261,1.077-1.856.713-3.047-.67-4.486q-11.259-11.718-22.385-23.566a3,3,0,0,0-3.057-.906c-4.406.747-8.626.371-12.251-2.651a9.127,9.127,0,0,1-3.159-5.1,17.224,17.224,0,0,0-1.931-5.17,3.922,3.922,0,0,0-4.36-2.047c-9.917,1.908-18.614-1.082-26.628-6.673-8.613-6.009-18.09-9.295-28.626-9.046-4.251.1-8.488.717-12.735,1.057-.077.006-.156.015-.236.023-.816.088-.783-.774,0-1.034,1.861-.623,3.632-1.218,5.41-1.8,8.293-2.7,16.559-5.482,24.895-8.04a50.216,50.216,0,0,1,16.6-2.009,7.821,7.821,0,0,0,1.52-.12.965.965,0,0,0,.387-1.61c-14.9-15.9-29.9-31.412-44.61-47.593-.583-.641-.171-1.34.47-.757l.092.083Q59.271,41.322,73.71,55.553c6.621,6.539,13.281,13.04,19.841,19.64a3.467,3.467,0,0,0,4.273.862,29.905,29.905,0,0,0,8.009-5.476,14.208,14.208,0,0,1,6.264-3.5,4.751,4.751,0,0,1,4.42,1.132c3.941,3.442,8.5,3.255,11.955-.692,4.767-5.446,10.871-8.974,17.082-12.383,1.55-.85,3.243-.6,4.865-.339s3.22.752,4.825,1.15c3.545.878,6.408,2.452,7.8,6.217,1.686,4.572,4.879,7.423,9.681,9.153a108.635,108.635,0,0,1,18.492,8.663c5.862,3.469,10.439,8.085,12.059,15.076.673,2.9,1.736,3.537,4.763,3.6.828.016,1.661.054,2.485-.006,1.966-.143,3.813-.256,4.4,2.343.207.925,1.11.844,1.913.5a56.183,56.183,0,0,1,8.943-2.706,3.087,3.087,0,0,1,3.207.6c3.355,3.327,7.4,3.954,11.836,2.973.5-.11,1.012-.163,1.493-.321,1.474-.487,1.914.2,2.056,1.566.556,5.315,1.214,10.619,2.219,15.871.25,1.309.743,2.57,1.037,3.872.426,1.882-.207,2.518-2.073,2.141-2.44-.493-4.852-1-7.318,0a2.823,2.823,0,0,0-1.946,2.942c.015,1.5-.24,2.963,1.566,3.92,4.414,2.338,9.228,3.677,13.971,5.879,1.975,1.251,4.324,1.731,4.6,4.413.047.446.786.684,1.284.623a1.348,1.348,0,0,0,1.2-1.3,7.937,7.937,0,0,1,1.428-3.655,5.912,5.912,0,0,0,.829-2.243.671.671,0,0,0-.579-.739,4.594,4.594,0,0,0-2.326.792C256.418,136.916,254.685,138.034,252.637,138.185Zm-61.281-8.72c5.159-2.746,10.056-6.445,16.272-4.711a1.019,1.019,0,0,0,1.28-.691,2.786,2.786,0,0,1,.309-.811,4.3,4.3,0,0,0-.1-5,3.694,3.694,0,0,1-.567-2.76c.5-2.082-.689-3.028-2.207-4.041a17.336,17.336,0,0,1-7.912-11.438c-.8-4.1-2.527-4.652-6-2.275-4.995,3.415-10.023,6.778-15.282,9.788a3.576,3.576,0,0,1-3.933.042c-1.871-1.089-3.779-2.114-5.682-3.147a3.927,3.927,0,0,0-4.31.243c-2.416,1.536-4.994,2.823-7.377,4.4-2.308,1.532-4.4,1.715-6.537-.207-1.158-1.041-2.189-.618-3.137.394a64.794,64.794,0,0,1-5.921,5.69c-.851.705-1.848,1.237-2.719,2.02a.909.909,0,0,0-.035,1.279c.258.3.5.571.76.833q10.24,10.436,20.495,20.86c2.745,2.784,2.793,2.816,6.194,1.065a2.139,2.139,0,0,1,3.094.7,16.02,16.02,0,0,1,2.36,3.264,1.2,1.2,0,0,0,1.77.522c1.242-.976,2.438-1.732,3.884-1.341a1.311,1.311,0,0,0,1.558-.619c.515-1.109.883-1.107,2.658-1.162.728-.022,1.773.345,2.091-.494.912-2.4,3.018-3.739,4.615-5.522.906-1.011,1.216-1.927.037-2.926a1.254,1.254,0,0,1-.487-.692.739.739,0,0,1,.43-.77C188.281,131.216,189.724,130.4,191.356,129.465Zm13.971,39.765c-.417-.562-.795-1.16-1.257-1.682a14.539,14.539,0,0,1-3.63-6.141,8.806,8.806,0,0,0-2.325-4.063,1.06,1.06,0,0,0-1.572.248,6.285,6.285,0,0,1-3.991,2.205,3.372,3.372,0,0,0-2.415,1.72,7.084,7.084,0,0,1-4.078,3.255,3.718,3.718,0,0,0-1.665.857.8.8,0,0,0,.094,1.093L204.5,187.585a1.152,1.152,0,0,0,1.9-.6c.861-3.616,3.03-6.319,4.927-9.2a1.043,1.043,0,0,0-.45-1.489A3.083,3.083,0,0,1,208.843,173c.055-.562-.512-.84-.9-1.156A12.781,12.781,0,0,1,205.327,169.23Zm159.654,89.642c.422-1.064.879-2.114,1.255-3.194.131-.377-.578-.7-.811-.374-1.857,2.582-3.976,5.012-4.758,8.136a.7.7,0,0,0,1.169.732C363.3,262.795,364.02,260.853,364.981,258.872Z" transform="translate(-37.523 -27.69)" fill="#fff"/>
</svg>
