<svg xmlns="http://www.w3.org/2000/svg" width="19.193" height="20.281" viewBox="0 0 19.193 20.281">
  <path id="marq-dot" d="M44.79,33.816a.037.037,0,0,0,.043-.044.176.176,0,0,0-.084-.09.433.433,0,0,1-.182-.284.044.044,0,0,1,.043-.056,1.853,1.853,0,0,0,.245.031.039.039,0,0,0,.024-.066.482.482,0,0,0-.145-.1c-.268-.135-.539-.265-.808-.4a.233.233,0,0,1-.094-.058.043.043,0,0,1,.009-.059.908.908,0,0,1,.232-.159.161.161,0,0,1,.2.039c.024.026.05.05.076.074s.046.049.082.028.03-.055.024-.086c-.027-.138-.041-.283-.211-.333a.182.182,0,0,1-.073-.046c-.03-.029-.011-.076.029-.067a.887.887,0,0,1,.086.028.042.042,0,0,0,.058-.037.169.169,0,0,0-.084-.145.554.554,0,0,0-.309-.094,2.007,2.007,0,0,1-.32-.034c-.038-.008-.052-.051-.019-.071s.093-.034.138-.055.025-.062-.013-.072a6.855,6.855,0,0,0-.7-.083c-.027,0-.049-.03-.034-.052a.16.16,0,0,1,.049-.037.268.268,0,0,0,.043-.031.038.038,0,0,0-.016-.059,1.61,1.61,0,0,1-.348-.175.638.638,0,0,0-.342-.148c-.036,0-.054-.035-.022-.052s.015-.054-.021-.055a2.777,2.777,0,0,0-1.631.321.045.045,0,0,1-.064-.009c-.046-.075.011-.16.021-.245A.037.037,0,0,0,40.624,31a.226.226,0,0,0-.115.134.924.924,0,0,0-.025.652c.017.049.035.1,0,.14a3.6,3.6,0,0,0-.494.956c-.214.481-.394.976-.59,1.464a.132.132,0,0,0,.04.161c.135.124.267.253.409.369a.4.4,0,0,0,.443.078.533.533,0,0,1,.174-.043.542.542,0,0,0,.433-.33.13.13,0,0,1,.167-.068c.068.027.028.094.007.138a5.2,5.2,0,0,1-.4.614,2.706,2.706,0,0,0-.472.918,1.2,1.2,0,0,1-.375.621,1.153,1.153,0,0,0-.229.45,1.952,1.952,0,0,0-.137.735c.006.164-.038.2-.2.188a1.521,1.521,0,0,1-.536-.157.488.488,0,0,0-.389-.006,1.038,1.038,0,0,0-.407.279.265.265,0,0,0-.053.3.268.268,0,0,1-.076.346,1.229,1.229,0,0,0-.216.3.374.374,0,0,0,.009.422,1.972,1.972,0,0,1,.265.574,5.178,5.178,0,0,1,.217.916.208.208,0,0,1,0,.083.265.265,0,0,0,.113.3.766.766,0,0,1,.213.286,2.5,2.5,0,0,0,.243.385c.1.153.206.3.312.454.084.118.143.124.249.023a.953.953,0,0,0,.274-.722,1.963,1.963,0,0,0-.024-.412c-.036-.174-.122-.249-.3-.224a1.716,1.716,0,0,1-.369-.009.059.059,0,0,1-.037-.013.024.024,0,0,1-.007-.017c0-.07.129-.093.112-.173-.007-.032,0-.069.028-.074a.287.287,0,0,1,.122.019.906.906,0,0,1,.408.284.952.952,0,0,0,.6.256,2.713,2.713,0,0,0,.433.031c.1,0,.16-.051.162-.142a1.332,1.332,0,0,0-.27-.934c-.134-.16-.318-.129-.493-.119a.622.622,0,0,0-.255.065.163.163,0,0,1-.056.019.031.031,0,0,1-.026-.053c.022-.026.051-.048.077-.077s0-.068-.037-.069c-.15-.006-.292-.027-.344-.2a.03.03,0,0,1,0-.031.048.048,0,0,1,.042-.009,2.144,2.144,0,0,1,.414.079,1.834,1.834,0,0,0,.705.111.36.36,0,0,1,.269.1c.072.067.147.131.221.2a.062.062,0,0,1,0,.086.27.27,0,0,0,.107.439.7.7,0,0,0,.327.078,1.783,1.783,0,0,1,.553.1c.275.083.5.256.77.34a.1.1,0,0,1,.059.038.045.045,0,0,1-.006.055c-.1.117-.207.241-.315.363a2.633,2.633,0,0,1-.407.355.827.827,0,0,0-.268.422c-.028.079.005.11.1.09a.575.575,0,0,0,.386-.241,8.906,8.906,0,0,1,.775-.868.178.178,0,0,1,.209-.049,8.8,8.8,0,0,0,1.16.236c.1.013.2.019.294.036.117.021.143.063.116.177a1.4,1.4,0,0,0-.031.358.406.406,0,0,0,.081.237c.238.316.483.627.719.944a1.6,1.6,0,0,0,.623.5,2.707,2.707,0,0,1,.538.294.4.4,0,0,1,.125.491,1.969,1.969,0,0,1-.343.494,3.908,3.908,0,0,1-.735.683.389.389,0,0,0-.175.333.421.421,0,0,1-.115.276,1.326,1.326,0,0,0-.249.611c-.048.228-.032.238.2.185.323-.075.649-.133.969-.219.152-.041.16-.055.072-.184-.03-.045-.038-.056-.031-.092s.034-.046.056-.031c.039.027.039.083.056.126a.031.031,0,0,0,.032.021c.059-.007.078-.113.137-.11.032,0,.068,0,.073-.029a.243.243,0,0,0,0-.028c0-.035.035-.048.068-.035.059.023.082-.008.094-.105a.419.419,0,0,0-.017-.158c-.01-.038.04-.065.052-.1a.119.119,0,0,0-.006-.065,1.185,1.185,0,0,0-.136-.309.091.091,0,0,1-.013-.106,1.705,1.705,0,0,1,.793-.795,1.223,1.223,0,0,1,.322-.1.5.5,0,0,0,.406-.486.3.3,0,0,0-.1-.2c-.073-.073-.168-.119-.243-.187a1.6,1.6,0,0,1-.531-.748c-.017-.061-.047-.135.026-.184.129-.086.207-.084.3-.016a1.79,1.79,0,0,1,.495.543,2.215,2.215,0,0,0,.518.527q.2.169.393.339a.377.377,0,0,1,.114.187.7.7,0,0,0,.179.3c.192.2.419.361.591.576a3.8,3.8,0,0,1,.494.859c.131.3,0,.563-.01.842,0,.067-.02.132-.025.2-.007.093.039.138.133.136.275-.008.55-.013.825-.026.127-.006.254,0,.381,0s.14-.021.134-.143a.772.772,0,0,0-.067-.227.041.041,0,0,1,.048-.057,1.073,1.073,0,0,1,.182.1.043.043,0,0,0,.064-.037.962.962,0,0,0-.108-.331c-.05-.138-.182-.147-.287-.2A.055.055,0,0,1,51.771,47a.262.262,0,0,0-.166-.284,1.017,1.017,0,0,1-.252-.223,3.008,3.008,0,0,1-.758-1.318.249.249,0,0,1-.018-.072c.009-.205-.136-.322-.255-.455A3.308,3.308,0,0,1,50,44.284a1.628,1.628,0,0,1-.238-.76.182.182,0,0,1,.025-.122,3.1,3.1,0,0,0,.356-1.112,2.955,2.955,0,0,0-.019-1.228c-.025-.114.028-.158.144-.127a.485.485,0,0,1,.2.131,2.68,2.68,0,0,1,.75,1.1,3.733,3.733,0,0,0,.5.942.731.731,0,0,0,.3.219c.025.012.06,0,.057-.024a.083.083,0,0,0-.011-.033c-.018-.033.008-.056.042-.039a.97.97,0,0,1,.2.138,1.269,1.269,0,0,0,.5.247.254.254,0,0,0,.136.006,2.074,2.074,0,0,1,.66.014,1,1,0,0,0,.226,0,.037.037,0,0,0,0-.073,2.272,2.272,0,0,0-.236-.034,5.6,5.6,0,0,1-.549-.11.23.23,0,0,1-.19-.187c0-.018.006-.039.024-.04a.161.161,0,0,1,.062.019,4.355,4.355,0,0,0,1.641.264,5.87,5.87,0,0,1,.73.031.476.476,0,0,0,.229-.029c.055-.023.108-.05.089-.105-.011-.033-.008-.073.024-.085a.5.5,0,0,1,.286-.009c.173.035.342.083.513.125a.169.169,0,0,0,.11,0c.02-.009.03-.035.013-.049s-.052-.016-.075-.025c-.053-.022-.128-.009-.116-.109,0-.033-.056-.049-.091-.063-.07-.029-.14-.06-.21-.09a.057.057,0,0,1,.01-.109c.089-.015.178-.025.268-.031.108-.007.219.011.328,0,.048-.007.049-.064,0-.08a8.107,8.107,0,0,1-.78-.257,6.952,6.952,0,0,0-.677-.272.051.051,0,0,1,.01-.1c.178-.017.356-.02.533-.028.025,0,.051-.022.037-.042a.072.072,0,0,0-.033-.022,1.243,1.243,0,0,0-.6-.1,7.32,7.32,0,0,1-.941-.014c-.075,0-.134-.037-.134-.131a.113.113,0,0,0-.019-.064c-.025-.038-.018-.094.027-.1a2.862,2.862,0,0,0,.355-.044c.026-.008.043-.037.024-.057a.147.147,0,0,0-.08-.027c-.266-.057-.539-.064-.808-.1a1.231,1.231,0,0,1-.635-.293.1.1,0,0,1-.038-.115.451.451,0,0,0-.059-.285,1.1,1.1,0,0,0-.551-.549.586.586,0,0,1-.125-.064c-.029-.022-.013-.061.02-.046s.064.042.1.032a.031.031,0,0,0,.022-.021c.01-.036-.023-.059-.04-.085a.969.969,0,0,0-.8-.379,2.844,2.844,0,0,0-1.557.352c-.3.148-.224.164-.465-.081-.257-.262-.512-.528-.767-.791a2.319,2.319,0,0,0-.927-.492l-.1-.034c-.021-.008-.036-.04-.021-.056h0a1.565,1.565,0,0,0,.274-.46.176.176,0,0,0,0-.189,1.421,1.421,0,0,0-.551-.587c-.088-.049-.091-.093-.02-.166q.829-.865,1.658-1.73a.32.32,0,0,1,.156-.084.546.546,0,0,0,.3-.185.458.458,0,0,1,.222-.117,1.178,1.178,0,0,0,.45-.309c.1-.11.12-.16.043-.292a.178.178,0,0,1,.037-.249q.624-.65,1.241-1.307a.166.166,0,0,1,.169-.05.794.794,0,0,0,.679-.147.506.506,0,0,0,.175-.283.955.955,0,0,1,.107-.287A.217.217,0,0,1,52.839,32a1.881,1.881,0,0,0,1.476-.37,2.612,2.612,0,0,1,1.587-.5c.236.006.471.04.706.059h.013c.045,0,.043-.043,0-.057l-.3-.1c-.46-.15-.918-.3-1.38-.446a2.784,2.784,0,0,0-.92-.111.434.434,0,0,1-.084-.007.054.054,0,0,1-.021-.089c.826-.882,1.658-1.742,2.473-2.639.032-.036.009-.074-.026-.042l-.005,0q-.847.739-1.647,1.528c-.367.363-.736.723-1.1,1.089a.192.192,0,0,1-.237.048,1.658,1.658,0,0,1-.444-.3.788.788,0,0,0-.347-.194.263.263,0,0,0-.245.063.435.435,0,0,1-.663-.038,3.32,3.32,0,0,0-.947-.687.406.406,0,0,0-.27-.019c-.09.015-.179.042-.268.064a.547.547,0,0,0-.432.345.823.823,0,0,1-.537.507,6.024,6.024,0,0,0-1.025.48,1.307,1.307,0,0,0-.669.836c-.037.161-.1.2-.264.2-.046,0-.092,0-.138,0-.109-.008-.211-.014-.244.13-.011.051-.062.047-.106.027a3.115,3.115,0,0,0-.5-.15.171.171,0,0,0-.178.033.666.666,0,0,1-.656.165c-.028-.006-.056-.009-.083-.018-.082-.027-.106.011-.114.087-.031.295-.067.589-.123.88-.014.073-.041.142-.057.215-.024.1.011.14.115.119a.678.678,0,0,1,.406,0,.157.157,0,0,1,.108.163c0,.083.013.164-.087.217-.245.13-.512.2-.775.326-.109.069-.24.1-.255.245,0,.025-.044.038-.071.035a.075.075,0,0,1-.066-.072.44.44,0,0,0-.079-.2.328.328,0,0,1-.046-.124.037.037,0,0,1,.032-.041.255.255,0,0,1,.129.044A.972.972,0,0,0,44.79,33.816Zm3.4-.483c-.286-.152-.558-.357-.9-.261a.056.056,0,0,1-.071-.038.154.154,0,0,0-.017-.045.238.238,0,0,1,.006-.277.2.2,0,0,0,.031-.153c-.028-.115.038-.168.122-.224A.961.961,0,0,0,47.8,31.7c.044-.227.14-.258.333-.126.277.189.556.376.847.543a.2.2,0,0,0,.218,0c.1-.06.21-.117.315-.174a.218.218,0,0,1,.239.013c.134.085.277.157.409.244a.265.265,0,0,0,.362-.011c.064-.058.121-.034.174.022a3.593,3.593,0,0,0,.328.315c.047.039.1.069.151.112a.05.05,0,0,1,0,.071c-.014.016-.028.032-.042.046q-.568.579-1.136,1.157c-.152.154-.155.156-.343.059a.119.119,0,0,0-.172.039.888.888,0,0,0-.131.181.066.066,0,0,1-.1.029.243.243,0,0,0-.215-.074.073.073,0,0,1-.086-.034c-.029-.061-.049-.061-.147-.064-.04,0-.1.019-.116-.027a1.046,1.046,0,0,0-.256-.306c-.05-.056-.067-.107,0-.162a.07.07,0,0,0,.027-.038.041.041,0,0,0-.024-.043Zm-.775,2.2c.023-.031.044-.064.07-.093a.806.806,0,0,0,.2-.34.488.488,0,0,1,.129-.225.059.059,0,0,1,.087.014.348.348,0,0,0,.221.122.187.187,0,0,1,.134.1.393.393,0,0,0,.226.18.206.206,0,0,1,.092.048.044.044,0,0,1-.005.061l-1.11,1.157a.064.064,0,0,1-.105-.033,1.61,1.61,0,0,0-.273-.51.058.058,0,0,1,.025-.083.171.171,0,0,0,.113-.183c0-.031.028-.047.05-.064A.709.709,0,0,0,47.413,35.538Zm-8.852,4.97c-.023-.059-.049-.117-.07-.177-.007-.021.032-.039.045-.021a1.379,1.379,0,0,1,.264.451.039.039,0,0,1-.065.041A.96.96,0,0,1,38.562,40.508ZM44.349,34.2a.021.021,0,0,1,.017.037.065.065,0,0,1-.093,0c-.01-.009-.012-.03,0-.032S44.316,34.206,44.349,34.2Z" transform="translate(-37.523 -27.69)" fill="#010101"/>
</svg>
