<svg xmlns="http://www.w3.org/2000/svg" xmlns:xlink="http://www.w3.org/1999/xlink" width="1013" height="608" viewBox="0 0 1013 608">
  <defs>
    <clipPath id="clip-path">
      <rect y="42" width="1013" height="608" fill="none"/>
    </clipPath>
  </defs>
  <g id="_1" data-name="1" transform="translate(-486 -2437)">
    <g id="Scroll_Group_2" data-name="Scroll Group 2" transform="translate(486 2395)" clip-path="url(#clip-path)" style="isolation: isolate">
      <rect id="dezoomify-result_5_" data-name="dezoomify-result (5)" width="1013" height="650" fill="#dfdedd"/>
    </g>
    <g id="kitlib-mono" transform="translate(713.171 2430.58)" style="mix-blend-mode: difference;isolation: isolate">
      <g id="logo" transform="translate(238.829 345.879) rotate(-90)">
        <path id="Path_4" data-name="Path 4" d="M6.449,0H62.656a5.331,5.331,0,0,0-5.408,5.522V75.71a4.4,4.4,0,0,1-6.709,3.752L30.931,67.407a4.4,4.4,0,0,0-4.613,0L6.711,79.462A4.4,4.4,0,0,1,0,75.71V6.449A6.449,6.449,0,0,1,6.448,0Z" transform="translate(0 0.081)" fill="#fff"/>
        <g id="Group_2" data-name="Group 2" transform="translate(44.037 0.081)">
          <path id="Path_5" data-name="Path 5" d="M0,28.6V0H11.009V28.6Z" transform="translate(8.807)" fill="#fff" opacity="0.1"/>
          <path id="Path_6" data-name="Path 6" d="M0,28.6V0H12.8a11.365,11.365,0,0,0-1.24,5.522V28.6Z" transform="translate(6.605)" fill="#fff" opacity="0.2"/>
          <path id="Path_7" data-name="Path 7" d="M0,28.6V0H14.589C12.6,1.315,12.11,3.844,12.11,5.522V28.6Z" transform="translate(4.404)" fill="#fff" opacity="0.3"/>
          <path id="Path_8" data-name="Path 8" d="M0,28.6V0H16.382C13.394.872,12.66,3.847,12.66,5.522V28.6Z" transform="translate(2.202)" fill="#fff" opacity="0.4"/>
          <path id="Path_9" data-name="Path 9" d="M0,28.6V0H18.172a5.438,5.438,0,0,0-4.961,5.522V28.6Z" fill="#fff" opacity="0.5"/>
        </g>
        <g id="Group_4" data-name="Group 4" transform="translate(6.602 0.081)">
          <g id="Group_3" data-name="Group 3" transform="translate(0)">
            <path id="Path_10" data-name="Path 10" d="M0,0h56.05a5.331,5.331,0,0,0-5.408,5.522V35.2H11.012A11.017,11.017,0,0,1,0,24.2S0,6.427,0,6.445Z" fill="#fff" opacity="0.05"/>
            <path id="Path_11" data-name="Path 11" d="M0,0H56.05a5.331,5.331,0,0,0-5.408,5.522V34.1H11.009A9.916,9.916,0,0,1,1.1,24.2S1.094,6.453,1.1,6.469C1.1,5.791.592,0,0,0Z" transform="translate(0.003)" fill="#fff" opacity="0.1"/>
            <path id="Path_12" data-name="Path 12" d="M0,0H56.05a5.331,5.331,0,0,0-5.408,5.522V33H11.009A8.816,8.816,0,0,1,2.2,24.2s0-17.714,0-17.7C2.2,5.139,1.187,0,0,0Z" transform="translate(0.003)" fill="#fff" opacity="0.2"/>
            <path id="Path_13" data-name="Path 13" d="M0,0H56.05a5.331,5.331,0,0,0-5.408,5.522V31.9H11.009A7.716,7.716,0,0,1,3.3,24.2s0-17.685,0-17.677C3.3,4.485,1.779,0,0,0Z" transform="translate(0.003)" fill="#fff" opacity="0.3"/>
            <path id="Path_14" data-name="Path 14" d="M0,0H56.05a5.331,5.331,0,0,0-5.408,5.522V30.8H11.009A6.616,6.616,0,0,1,4.4,24.2s0-17.656,0-17.65C4.4,3.833,2.374,0,0,0Z" transform="translate(0.003)" fill="#fff" opacity="0.4"/>
            <path id="Path_15" data-name="Path 15" d="M0,0H56.05a5.331,5.331,0,0,0-5.408,5.522V29.7H11.009a5.516,5.516,0,0,1-5.5-5.5s0-17.628,0-17.624C5.5,3.179,2.966,0,0,0Z" transform="translate(0.003)" fill="#fff" opacity="0.5"/>
          </g>
          <path id="Path_16" data-name="Path 16" d="M11.009,28.6a4.414,4.414,0,0,1-4.4-4.4V6.6A6.394,6.394,0,0,0,0,0H56.05a5.331,5.331,0,0,0-5.408,5.522V28.6Z" transform="translate(0.003)" fill="#fff"/>
        </g>
        <path id="Path_17" data-name="Path 17" d="M11.009,28.624h48.44a4.417,4.417,0,0,0,4.4-4.4V5.322A5.322,5.322,0,0,0,58.531,0H0A6.4,6.4,0,0,1,6.605,6.605V24.22a4.417,4.417,0,0,0,4.4,4.4Z" transform="translate(6.605)" fill="#fff"/>
        <path id="Path_18" data-name="Path 18" d="M59.45,27.523H11.009a3.307,3.307,0,0,1-3.3-3.3V6.605A7.7,7.7,0,0,0,5.552,1.1H58.533a4.225,4.225,0,0,1,4.221,4.221v18.9a3.307,3.307,0,0,1-3.3,3.3Zm0,1.1a4.417,4.417,0,0,0,4.4-4.4V5.322A5.322,5.322,0,0,0,58.531,0H0A6.4,6.4,0,0,1,6.605,6.605V24.22a4.417,4.417,0,0,0,4.4,4.4Z" transform="translate(6.605)" fill="#fff"/>
      </g>
      <g id="logo-2" data-name="logo" transform="translate(238.829 345.879) rotate(-90)">
        <path id="Path_4-2" data-name="Path 4" d="M6.449,0H62.656a5.331,5.331,0,0,0-5.408,5.522V75.71a4.4,4.4,0,0,1-6.709,3.752L30.931,67.407a4.4,4.4,0,0,0-4.613,0L6.711,79.462A4.4,4.4,0,0,1,0,75.71V6.449A6.449,6.449,0,0,1,6.448,0Z" transform="translate(0 0.081)" fill="#fff"/>
        <g id="Group_2-2" data-name="Group 2" transform="translate(44.037 0.081)">
          <path id="Path_5-2" data-name="Path 5" d="M0,28.6V0H11.009V28.6Z" transform="translate(8.807)" fill="#fff" opacity="0.1"/>
          <path id="Path_6-2" data-name="Path 6" d="M0,28.6V0H12.8a11.365,11.365,0,0,0-1.24,5.522V28.6Z" transform="translate(6.605)" fill="#fff" opacity="0.2"/>
          <path id="Path_7-2" data-name="Path 7" d="M0,28.6V0H14.589C12.6,1.315,12.11,3.844,12.11,5.522V28.6Z" transform="translate(4.404)" fill="#fff" opacity="0.3"/>
          <path id="Path_8-2" data-name="Path 8" d="M0,28.6V0H16.382C13.394.872,12.66,3.847,12.66,5.522V28.6Z" transform="translate(2.202)" fill="#fff" opacity="0.4"/>
          <path id="Path_9-2" data-name="Path 9" d="M0,28.6V0H18.172a5.438,5.438,0,0,0-4.961,5.522V28.6Z" fill="#fff" opacity="0.5"/>
        </g>
        <g id="Group_4-2" data-name="Group 4" transform="translate(6.602 0.081)">
          <g id="Group_3-2" data-name="Group 3" transform="translate(0)">
            <path id="Path_10-2" data-name="Path 10" d="M0,0h56.05a5.331,5.331,0,0,0-5.408,5.522V35.2H11.012A11.017,11.017,0,0,1,0,24.2S0,6.427,0,6.445Z" fill="#fff" opacity="0.05"/>
            <path id="Path_11-2" data-name="Path 11" d="M0,0H56.05a5.331,5.331,0,0,0-5.408,5.522V34.1H11.009A9.916,9.916,0,0,1,1.1,24.2S1.094,6.453,1.1,6.469C1.1,5.791.592,0,0,0Z" transform="translate(0.003)" fill="#fff" opacity="0.1"/>
            <path id="Path_12-2" data-name="Path 12" d="M0,0H56.05a5.331,5.331,0,0,0-5.408,5.522V33H11.009A8.816,8.816,0,0,1,2.2,24.2s0-17.714,0-17.7C2.2,5.139,1.187,0,0,0Z" transform="translate(0.003)" fill="#fff" opacity="0.2"/>
            <path id="Path_13-2" data-name="Path 13" d="M0,0H56.05a5.331,5.331,0,0,0-5.408,5.522V31.9H11.009A7.716,7.716,0,0,1,3.3,24.2s0-17.685,0-17.677C3.3,4.485,1.779,0,0,0Z" transform="translate(0.003)" fill="#fff" opacity="0.3"/>
            <path id="Path_14-2" data-name="Path 14" d="M0,0H56.05a5.331,5.331,0,0,0-5.408,5.522V30.8H11.009A6.616,6.616,0,0,1,4.4,24.2s0-17.656,0-17.65C4.4,3.833,2.374,0,0,0Z" transform="translate(0.003)" fill="#fff" opacity="0.4"/>
            <path id="Path_15-2" data-name="Path 15" d="M0,0H56.05a5.331,5.331,0,0,0-5.408,5.522V29.7H11.009a5.516,5.516,0,0,1-5.5-5.5s0-17.628,0-17.624C5.5,3.179,2.966,0,0,0Z" transform="translate(0.003)" fill="#fff" opacity="0.5"/>
          </g>
          <path id="Path_16-2" data-name="Path 16" d="M11.009,28.6a4.414,4.414,0,0,1-4.4-4.4V6.6A6.394,6.394,0,0,0,0,0H56.05a5.331,5.331,0,0,0-5.408,5.522V28.6Z" transform="translate(0.003)" fill="#fff"/>
        </g>
        <path id="Path_17-2" data-name="Path 17" d="M11.009,28.624h48.44a4.417,4.417,0,0,0,4.4-4.4V5.322A5.322,5.322,0,0,0,58.531,0H0A6.4,6.4,0,0,1,6.605,6.605V24.22a4.417,4.417,0,0,0,4.4,4.4Z" transform="translate(6.605)" fill="#fff"/>
        <path id="Path_18-2" data-name="Path 18" d="M59.45,27.523H11.009a3.307,3.307,0,0,1-3.3-3.3V6.605A7.7,7.7,0,0,0,5.552,1.1H58.533a4.225,4.225,0,0,1,4.221,4.221v18.9a3.307,3.307,0,0,1-3.3,3.3Zm0,1.1a4.417,4.417,0,0,0,4.4-4.4V5.322A5.322,5.322,0,0,0,58.531,0H0A6.4,6.4,0,0,1,6.605,6.605V24.22a4.417,4.417,0,0,0,4.4,4.4Z" transform="translate(6.605)" fill="#fff"/>
      </g>
    </g>
  </g>
</svg>
