<svg xmlns="http://www.w3.org/2000/svg" xmlns:xlink="http://www.w3.org/1999/xlink" width="1013" height="608" viewBox="0 0 1013 608">
  <defs>
    <clipPath id="clip-path">
      <rect y="42" width="1013" height="608" fill="none"/>
    </clipPath>
  </defs>
  <g id="_4" data-name="4" transform="translate(-486 -2437)">
    <g id="Scroll_Group_2" data-name="Scroll Group 2" transform="translate(486 2395)" clip-path="url(#clip-path)" style="isolation: isolate">
      <rect id="dezoomify-result_5_" data-name="dezoomify-result (5)" width="1013" height="650" fill="#dfdedd"/>
    </g>
    <g id="header-logo" transform="translate(896.297 3226.361)" style="mix-blend-mode: difference;isolation: isolate">
      <path id="Path_78" data-name="Path 78" d="M160.958-565.431c0,.775-2.454,10.139-3.423,12.916a12.447,12.447,0,0,1-2.68,4.747c-1.55,1.808-2.39,3.423-5.683,10.753-2.131,4.747-3.939,8.783-4,8.977-.226.646,2.39-.032,5.619-1.388,3.713-1.615,6.135-1.873,7.653-.84,1.13.743,2.874,4.23,3.068,6.168.1.807.1,1.453,0,1.453a18.762,18.762,0,0,1-2.228-.969,8.568,8.568,0,0,0-6.426-.614c-1.453.517-1.421.42-.678,1.485.355.484,1.033,1.518,1.485,2.26,1.841,3,5.909,3.649,11.657,1.841,3.681-1.13,6.361-1.324,7.911-.549.9.452,1.421,1.13,2.486,3.326.743,1.518,1.421,2.874,1.518,3.068.1.161.484-.1.872-.581,1.13-1.485,1.97-1.615,4.747-.84,2.422.678,3.165.678,6.749.1,1.711-.258,1.744.032.549,2.583a11.708,11.708,0,0,1-6.135,5.522l-2.422,1.1.646,1.227c.807,1.615,1.711,2.39,4.166,3.617,1.679.84,2.034,1.162,1.937,1.744-.1.775-2.616,2.809-3.487,2.809a6.184,6.184,0,0,1-2.131-1.13,24.045,24.045,0,0,0-7.685-3.713l-2.293-.581-.484,1.324c-.71,1.873-2.164,2.809-4.488,2.809-1.873,0-2.2.129-5.36,2.067-2.874,1.776-3.584,1.647-11.2-2.228-6.813-3.455-10.4-5.683-13.272-8.267-1.033-.9-2-1.55-2.131-1.388-.549.613-5.167,11.2-5.005,11.463a1.016,1.016,0,0,0,.775.291c1.162,0,8.46,2.26,10.817,3.358a29.207,29.207,0,0,1,13.175,11.851c.678,1.13,2.228,1.808,4.585,2.067,1.97.194,2.2.161,8.88-1.776a17.681,17.681,0,0,1,17.889,4.521,19.071,19.071,0,0,1,4.747,9.009c.71,2.874.743,6.684.065,7.944-.291.484-.42.291-.9-1.324a23.006,23.006,0,0,0-1.033-2.874c-.517-1.033-2.971-3.714-3.391-3.714a8.134,8.134,0,0,0,1.033,2.357,18.538,18.538,0,0,1,1.937,13.821c-.872,3.229-.84,4.941.065,5.78a2.49,2.49,0,0,0,1.356.646c.678.032.678.032.032.517-.807.613-2.712.42-3.81-.388-1.292-.969-1.873-2.26-2.131-4.585l-.226-2.163-.549,1.582a7.769,7.769,0,0,0,.323,6.264c1.518,3.681,1.13,6.394-1.259,8.815-1.033,1-3.713,2.454-4.036,2.131a3.905,3.905,0,0,1,.84-1.518,7.878,7.878,0,0,0,1.195-2.486,5.132,5.132,0,0,0-1.292-4.262l-.775-.71-.129,2.2a10.325,10.325,0,0,1-1.1,4.295,10.073,10.073,0,0,1-5.231,5.554,8.325,8.325,0,0,1-4.908,1.066,16.657,16.657,0,0,1-3.391-.258c-.517-.226-.291-.387,1.292-.9,2.26-.678,4.553-2.486,5.2-4.069a6.467,6.467,0,0,0,.42-2.422c0-1.227-.065-1.324-.387-.775a10.168,10.168,0,0,1-14.725,3.068c-1.615-1.162-1.711-1.679-.258-1.421a5.2,5.2,0,0,0,4.521-1.453,8.368,8.368,0,0,0,1.324-3.746,16.463,16.463,0,0,1,1.162-3.907c.581-1,.581-1.066.065-1.066-1.1,0-2.067,1.066-3.294,3.713-1.066,2.2-1.485,2.777-2.454,3.229a3.266,3.266,0,0,1-4.133-.84c-1.195-1.389-1.033-1.711.323-.775,1.453,1,1.808,1,2.842.065.678-.581.9-1.195,1.162-3.132.678-4.876,1.905-6.943,5.619-9.429,3.2-2.131,4.747-3.52,5.716-5.07a9.113,9.113,0,0,0,.936-1.679,8.544,8.544,0,0,0-2.357,1,7.756,7.756,0,0,0-3.1,2.357c-.936,1.421-1.324,1.259-1.324-.484a7.167,7.167,0,0,1,2.745-5.263c1.711-1.421,2.874-3.875,2.551-5.49a7.034,7.034,0,0,0-3.552-4.424c-1.518-.807-5.457-1.808-5.812-1.485a12.79,12.79,0,0,0,.194,2.939c1.13,9.235-3.2,16.016-14.208,22.152a17.6,17.6,0,0,0-3.165,2.163q-2.616,2.955,4.65,10.462a26.218,26.218,0,0,1,3.52,4.166c.452,1.421-.129,2.938-1.679,4.456-1.485,1.453-4.166,3-5.1,3-1.162,0-5.78,1.808-11.011,4.327-4.133,2-5.974,3.1-7.362,4.359-2.422,2.2-3.294,2.519-4.23,1.647-1.356-1.292-3.068-.355-3.068,1.711a5.919,5.919,0,0,1-2.067,3.907,13.535,13.535,0,0,1-6.878,1.388c-3.584-.291-3.81-1.259-1.292-5.554,1.582-2.712,1.808-2.971,3.81-4.036a23.722,23.722,0,0,0,4.424-3.294c2.26-2.131,2.325-2.164,6.91-3.617,5.167-1.647,10.333-3.649,12.367-4.876,1.615-.936,1.97-1.841,1.453-3.778-.42-1.485-3.068-4.521-3.843-4.392-.614.129-.9,1.356-.969,4a4.825,4.825,0,0,1-2.777,4.779c-1.195.614-1.841.678-8.88.71-8.557.032-10.817.388-12.916,2.067-1.324,1.066-2.583,1.259-3.229.484a1.632,1.632,0,0,0-2.164-.129c-.258.258-.323,1.1-.194,2.422l.194,2.067-1.13.452a22.919,22.919,0,0,1-4.1,1.033c-3.391.614-5.586.388-5.78-.614-.161-.807,1.324-3.746,2.842-5.683s7.169-6.717,8.719-7.395c.807-.355,2.938-.549,7.75-.743,6.813-.226,7.621-.355,9.946-1.55,1.615-.84,2.486-2.1,3-4.456.549-2.422,0-3.972-2.842-8.073a48.547,48.547,0,0,1-3.681-6.1c-1.905-4-1.453-3.81-9.461-4a52.978,52.978,0,0,0-7.395.1c-.452.226-.549.71-.549,3.294,0,2.68-.065,3.1-.614,3.391-.872.452-3,.42-5.167-.129a33.845,33.845,0,0,0-3.907-.678C83.685-449.7,77-452.509,77-454.221c0-.969.936-1.356,4.069-1.647,3.2-.291,5.651-1.033,5.1-1.55a18.273,18.273,0,0,0-3.035-.969,63.21,63.21,0,0,1-12.4-4.908c-3.681-1.841-3.907-1.905-5.2-1.582a10.888,10.888,0,0,1-4.23-.065,44.662,44.662,0,0,0-5.3-.323c-1.324.032-5.877.1-10.075.129l-7.653.065.161,1.647c.291,2.616.194,2.551,2.486,2.325,2.454-.258,3.326.129,4.327,1.905a22.03,22.03,0,0,1,2.034,7.879v1.744l-1.615-.161a16.175,16.175,0,0,1-4.65-1.647c-2.745-1.324-3.165-1.647-4.166-3.229a14.977,14.977,0,0,0-2.68-3c-2.712-2.2-3.326-2.939-3.746-4.456a4.232,4.232,0,0,0-.581-1.485,57.054,57.054,0,0,0-7.33,4.392c-3.068,2.2-4.553,3.584-5.167,4.876-.678,1.453-1.647,1.808-3.52,1.324-1.356-.387-1.518-.355-1.937.226a1.748,1.748,0,0,0-.291,1.292c.581,1.905.549,3.229-.129,4.1-1.033,1.292-3.907,2.228-6.975,2.293-4.618.1-5.07-.355-3.52-3.391A18.149,18.149,0,0,1,5.8-454.8a18.609,18.609,0,0,0,2.809-2.648c2.809-3.52,3.068-3.713,5.974-4.811,5.78-2.164,8.751-4,12.045-7.427a14.043,14.043,0,0,1,2.2-2c.355-.1.258-1-.484-4.295a42.242,42.242,0,0,1-.872-5.651,6.736,6.736,0,0,1,4.714-6.168c1.13-.291,1.873-.226,4.747.452a49.255,49.255,0,0,0,5.425,1.033c2.357.258,2.422.194,2.842-3.391.581-4.941,2-8.654,4.488-11.722,1.97-2.422,2.325-3.229,2.938-6.523.323-1.582,1.195-4.844,1.97-7.265.743-2.39,1.485-5.005,1.615-5.812l.226-1.453-1.744,1.905a16.18,16.18,0,0,0-1.873,2.26c-.065.194-.614,1.356-1.259,2.616a6.53,6.53,0,0,0-1.066,3.875c.194,3.552.161,3.907-.581,4.973-.9,1.259-2.583,2.1-3.2,1.582a5.536,5.536,0,0,1-.387-2.712c0-3.455-.42-3.2-1.776,1.1-.484,1.453-.743,1.808-1.679,2.228-1.97.807-3.068,0-6.135-4.488l-.807-1.195.517-3.746c.678-4.844.678-10.753.032-13.078-.9-3.2-.9-3.907-.032-7.3.936-3.52.872-4.295-.452-5.457-1.615-1.421-1.937-3.358-1.162-7.007a12.914,12.914,0,0,0,.291-3.487c-.226-1.582.161-1.647,1.421-.226a8.506,8.506,0,0,1,1.873,3.907l.194.936.807-1.1c.807-1.066.807-1.195.614-4.424a10.959,10.959,0,0,1,.032-3.294,12.4,12.4,0,0,1,2.131,1.841c1.841,1.808,1.873,1.841,1.873.936a5.133,5.133,0,0,1,2.745-4.23c2-1.292,2.486-1.841,2.938-3.358l.323-1.162.581,1.1a4.374,4.374,0,0,1,.42,2.842l-.194,1.711,1-.969c1.873-1.905,3.294-2.39,6.91-2.39,3.1-.032,3.294-.065,4.456-1,3.358-2.68,5.037-3.294,6.749-2.39.646.355.614.388-.42.743-.807.258-1.356.807-2.131,2.1a11.043,11.043,0,0,1-1.744,2.357c-.71.581-.71.581.936.581a7.836,7.836,0,0,0,5.328-2.067c1.97-1.615,3.229-2.131,5.005-2.131a6.7,6.7,0,0,1,4.295,1.389c1.324.872,1.1,1.1-.9.936a5.053,5.053,0,0,0-2.616.291c-.84.452-2.938,4.166-2.357,4.166a6.364,6.364,0,0,0,1.582-1.13,6.87,6.87,0,0,1,1.453-1.13c.387,0,.194,2.293-.291,3.423L77.647-551l1.389-.258c4.553-.775,8.945.71,11.334,3.843.872,1.13,1.937,3.746,1.647,4.036-.1.1-.71-.355-1.389-1a7.939,7.939,0,0,0-2.1-1.485c-1.162-.452-3.681-.452-3.939-.032-.1.161.065.323.387.323,1.227,0,3.907,1.55,4.811,2.777a16.24,16.24,0,0,0,4.069,4.2,6.1,6.1,0,0,0,5.037-.194c1.292-.807,1.356-.807,1.356.032a4.061,4.061,0,0,1-1.227,1.905L97.8-535.626l.743.839a5.477,5.477,0,0,1,.129,6.684l-.614.743-.226-1.421c-.42-2.551-3.2-4.424-6.071-4.133l-1.033.1,1.55.775c3.068,1.518,4.036,3.875,2.163,5.263-1.066.775-1.259,1.873-.484,2.519.678.581,2.938.258,4.876-.678,1.485-.743,1.679-1,3.229-4.1a15.824,15.824,0,0,1,6.394-7.427l2.2-1.518-1.227-.161c-1.227-.161-1.259-.194-1.808-2.228a8.583,8.583,0,0,0-1.1-2.648c-.549-.581-.517-.969.065-3.617.194-.807.129-.872-.936-.872-2.163,0-2.293-.258-.872-1.841a6.729,6.729,0,0,0,1.292-1.841,15.41,15.41,0,0,1,1.1-2.68,21.619,21.619,0,0,1,4.327-5.683,31.467,31.467,0,0,0,3.455-4.069c.323-1.066.743-.807,1.13.678a20.209,20.209,0,0,0,2.1,3.972c2.68,3.972,3.713,6.943,3.713,10.495,0,2.842,1.679,6.587,3.326,7.33,5.522,2.583,5.748,2.712,7.265,4.714,2.906,3.875,8.105,8.3,9.752,8.3.614,0,.646-.1,5.457-10.721a71.425,71.425,0,0,0,3.94-9.849c.807-4.488,1.776-6.458,6.749-14.079C160.377-565.818,160.958-566.432,160.958-565.431Zm-39.1,50.6c-2.745,3.455-3.229,5.328-2.454,9.72l.387,2.163,1.195-.84c1.356-.969,3.681-1.356,4.779-.775.646.355.71.581.581,1.97a13.437,13.437,0,0,1-1.195,3.681,15.354,15.354,0,0,0-1.033,2.325c0,.161.549.355,1.227.484.678.161,1.55.323,1.937.42.84.194,1.324-.613,4.779-8.428,2.39-5.36,2.39-5.134.194-7.621a7.936,7.936,0,0,0-3.843-2.454,25.356,25.356,0,0,1-3.617-1.647,6.956,6.956,0,0,0-1.356-.678A9.007,9.007,0,0,0,121.853-514.831ZM34.377-478.439a10.857,10.857,0,0,0-.129,4.682c.129.323.452.452.9.355.355-.065,2.454-.452,4.618-.84a17.411,17.411,0,0,0,3.972-.9,38.831,38.831,0,0,0-5.812-3.52C36.541-479.246,34.765-479.149,34.377-478.439Z" transform="translate(0 0)" fill="#fff"/>
    </g>
  </g>
</svg>
