<svg xmlns="http://www.w3.org/2000/svg" width="354.454" height="162.144" viewBox="0 0 354.454 162.144">
  <g id="header-logo" style="mix-blend-mode: difference;isolation: isolate">
    <path id="Path_70" data-name="Path 70" d="M32.84-513.574a16.9,16.9,0,0,0,1.243,4.024c.556,1.374.393,3.337-.458,5.921-.491,1.439-.491,1.636,0,2.159a2.632,2.632,0,0,1,.523,1.538,4.234,4.234,0,0,0,.818,2.094,4.189,4.189,0,0,1,.818,1.669c0,.622.229.818,3.533,2.944,2.257,1.472,2.519,1.865,4.875,7.492.818,1.9,2.061,4.875,2.814,6.641.818,1.93,1.21,3.3,1.014,3.468-.164.164-1.407-.164-2.912-.818a14.538,14.538,0,0,0-3.828-1.08,7.933,7.933,0,0,1-2.748-.851c-2.486-1.341-4.286-1.014-5.66.981-1.407,2.061-2.159,5.365-1.341,5.889a2.119,2.119,0,0,0,1.341-.327c2.094-1.112,3.959-1.472,5.267-1.08,2.094.622,2.225,1.112.654,2.552a6.014,6.014,0,0,0-1.57,2.126,3.089,3.089,0,0,1-2.813,1.8,4.679,4.679,0,0,0-1.7.491c-1.21.622-1.668.622-3.926-.164a6.318,6.318,0,0,0-2.257-.458,13.365,13.365,0,0,1-3.01-.458c-2.748-.654-4.547-.458-4.22.425.294.752-1.112,1.243-2.879,1.014-1.309-.2-1.734-.1-2.421.425a6.318,6.318,0,0,1-2.388.851A8.438,8.438,0,0,0,8.4-463.029c-2.29,1.5-2.486,1.538-5.005,1.112a7.569,7.569,0,0,0-2.454-.2c-.262.229,1.047,2.486,2.159,3.7a5.154,5.154,0,0,1,1.08,1.7c.229.72,3.01,3.272,4.351,3.991a1.214,1.214,0,0,1,.752.883c0,1.014-1.767,3.075-3.468,4.057-2.454,1.374-2.388,2.257.2,3.73l1.439.818,1.472-1.08c2.323-1.7,4.776-2.814,6.183-2.814a10.79,10.79,0,0,1,5.758,1.472,5.249,5.249,0,0,0,3.272.981c1.865.1,2.585.36,4.842,1.636,2.814,1.636,2.781,1.636,6.314.818,3.5-.785,4.024-1.014,5.463-2.094a29.244,29.244,0,0,1,4.547-2.552,36.454,36.454,0,0,0,9.193-6.15,12.923,12.923,0,0,1,2.552-1.963c.2,0,.72.785,1.112,1.7,3.173,7.132,4.155,9.553,4.024,9.88a3.613,3.613,0,0,1-1.767.818,47.876,47.876,0,0,0-17.7,8.473,36.35,36.35,0,0,0-5.758,7.3c-1.243,2.388-3.959,2.486-12.006.425-3.7-.916-7.1-1.014-9.16-.229a14.066,14.066,0,0,1-4.613.556,12.716,12.716,0,0,0-3.5.36c-.262.262,0,.327.785.229,1.5-.2,1.309.393-.785,2.159a8.594,8.594,0,0,0-1.963,2.29,4.278,4.278,0,0,1-1.668,1.668,8.183,8.183,0,0,0-3.6,4.188A35.1,35.1,0,0,0-.1-409.834l-.2,4.089,1.243.883,1.243.883.1,3.206c.033,1.767.065,3.664.1,4.22A10.724,10.724,0,0,0,2.906-394c.36,1.047.425,1.668.2,2.094-.262.458-.164.752.327,1.145a1.824,1.824,0,0,1,.622,1.014c0,.883.622.883,1.08-.033l.491-.883.687,1.112c.752,1.276.851,2.028.327,2.977-.262.491-.2,1.08.2,2.257a5.249,5.249,0,0,0,.851,1.8c.164.131.2-.1.033-.556-.393-1.08-.491-3.86-.164-3.86.556,0,1.407,2.323,1.407,3.795,0,1.5.425,2.748.981,2.748.164,0,.2-.523.1-1.145-.229-1.407.294-2.094,1.439-2,.949.1,2.192,1.374,1.93,2a6.568,6.568,0,0,0,.818,2.323c.752,1.538.949,1.767.949,1.08a13.615,13.615,0,0,0-1.9-4.973c-.294-.327-.36-.556-.131-.556a.875.875,0,0,1,.622.425,6.624,6.624,0,0,0,1.341,1.178,4.636,4.636,0,0,1,2.028,3.239c0,1.112,1.276,2.29,3.991,3.664,2.879,1.439,3.37,1.538,4.351.785.589-.425.556-.458-.458-.262-.818.164-1.047.131-.883-.164.164-.262-.2-.556-1.112-.916-.851-.327-1.276-.687-1.178-.981.1-.229-.1-.556-.458-.752a3.445,3.445,0,0,1-1.08-1.243l-.458-.949,1.6-.327c1.276-.262,1.668-.229,1.8.1s.327.327.949.065c.491-.229.752-.556.622-.851-.131-.327,0-.393.393-.229a23.266,23.266,0,0,0,5.791.589c2.094.033,2.29,0,3.01-.916,1.8-2.323,1.93-2.421,3.337-2.225a3.632,3.632,0,0,0,1.9-.2c.556-.294.491-.327-.36-.36a10.39,10.39,0,0,1-6.379-2.617c-1.276-1.341-1.636-1.9-.981-1.472.72.458.262-.523-.491-1.014-1.014-.654-1.08-1.538-.1-1.374.458.065.981.622,1.472,1.57,1.243,2.355,2.584,3.533,4.286,3.795a3.607,3.607,0,0,0,2.094-.164,1.753,1.753,0,0,1,1.341-.164c.622.2.654.164.262-.327a2.305,2.305,0,0,0-1.57-.523A4.035,4.035,0,0,1,35-388.307c-.294-.687-.36-1.21-.164-1.44.36-.425-.393-2.715-1.309-4.024l-.622-.883,1.374-1.538c1.309-1.472,1.439-1.538,3.075-1.538,2.225,0,2.225-.589,0-.72l-1.7-.1,1.014-1.047a6.511,6.511,0,0,1,1.243-1.08,11.645,11.645,0,0,1,1.8,1.341,59.728,59.728,0,0,0,9.226,6.183,10.777,10.777,0,0,1,2.879,1.93,5.159,5.159,0,0,1-.294,4.122c-.785,1.668-3.926,5.463-6.314,7.655-3.37,3.075-3.337,4.94.164,7.95,2.879,2.519,3.5,2.879,4.875,2.879,2.715,0,15.474,5.791,18.157,8.244a11.689,11.689,0,0,0,2.65,1.9c.981.393,1.112.36,1.57-.294.622-.883,1.439-.883,2.584,0a1.489,1.489,0,0,1,.687,1.8c-.262,1.341.883,3.86,1.963,4.351,2.486,1.112,9.128,1.309,10.142.294.491-.491.393-.752-1.178-3.6-2.159-3.828-2.323-4.024-4.776-5.2a16.535,16.535,0,0,1-4.449-3.337c-2.192-2.159-2.617-2.454-4.678-3.01-7.1-1.9-16.292-5.758-16.619-7a6.4,6.4,0,0,1,.949-4.024c1.341-1.668,3.435-3.3,3.795-2.944a12.669,12.669,0,0,1,.556,3.4c.294,3.566.523,4.089,2.355,5.365l1.407.949,6.052-.1c6.118-.065,12.4.393,13.61.981a5.089,5.089,0,0,1,1.145.883,4.938,4.938,0,0,0,1.734.981c1.21.393,1.309.393,2.192-.458a2.241,2.241,0,0,1,1.538-.752c.523.1.589.491.687,3.108l.1,3.01,2.355.523c1.309.294,3.01.622,3.828.72,1.734.2,4.253-.393,4.253-1.014a25.686,25.686,0,0,0-2.126-5.627,12.254,12.254,0,0,0-2.355-2.192c-1.014-.752-2.846-2.29-4.057-3.4a13.132,13.132,0,0,0-3.3-2.323,58.529,58.529,0,0,0-7.623-.523c-7.132-.2-8.113-.36-10.371-1.8-2-1.276-2.617-2.552-2.814-5.66l-.164-2.552,1.309-1.7c.72-.949,1.865-2.617,2.552-3.7a22.1,22.1,0,0,1,2.814-3.468c1.57-1.5,1.6-1.57,1.6-3.5,0-1.9.033-2,.916-2.159.785-.2,16.1-.131,16.1.033,0,.033-.2.72-.458,1.472a12.3,12.3,0,0,0-.393,3.206c.033,1.734.065,1.8.981,1.9a5,5,0,0,1,1.7.589,3.7,3.7,0,0,0,2.159.393c1.145-.065,1.472-.262,1.832-1.014.425-.883,1.7-1.276,1.7-.523,0,.556,3.86.164,5.071-.491.556-.294,2.192-.981,3.631-1.538,4.678-1.767,6.02-3.893,2.454-3.893-1.767,0-6.281-.883-6.707-1.309-.491-.491.654-.752,1.407-.36,1.6.883,3.468.2,5.365-1.9a5.215,5.215,0,0,1,1.5-1.341,4.507,4.507,0,0,0,1.374-.883,8.567,8.567,0,0,1,2.094-1.276,1.481,1.481,0,0,1,1.9.393,1.686,1.686,0,0,0,1.668.523,6.731,6.731,0,0,0,3.206-2.977c.589-1.047,1.08-1.21,2.715-.72.949.262,2.29.131,6.379-.556a10.229,10.229,0,0,1,3.6,0c.981.164,5.2.294,9.357.294h7.524l.393,1.08a4.16,4.16,0,0,1-.131,3.73c-.622.916-1.178.916-1.963.033a5.809,5.809,0,0,0-1.57-1.178c-.949-.491-1.014-.491-1.767.425-2.454,3.01-4.449,9.847-3.337,11.581.425.687,2.486.065,6.379-1.865,2.486-1.243,3.075-1.668,3.206-2.355.262-1.211,2.65-3.828,4.678-5.136a4.945,4.945,0,0,0,2.584-3.828c.262-1.21.687-1.08,4.875,1.5,5.954,3.6,7.426,4.776,8.146,6.412.72,1.7,1.439,2.65,2.028,2.65a5.422,5.422,0,0,0,1.6-1.145c1.309-1.21,2-1.407,2.257-.752a23.8,23.8,0,0,1-.294,5.4c-.164.916-.065,1.112,1.112,1.9a13.656,13.656,0,0,0,2.879,1.341c2.683.818,7.721.458,7.917-.589a19.415,19.415,0,0,0-1.93-4.351c-1.636-3.141-2.257-3.959-3.37-4.646-2.192-1.374-4.057-3.075-4.449-4.057-.589-1.374-1.6-2.126-4.089-2.912-5.071-1.636-10.142-4.711-12.693-7.688a8.916,8.916,0,0,0-2.225-1.963c-.622-.2-.687-.393-.491-1.767a34.453,34.453,0,0,1,1.08-4.384c.818-2.683.818-2.944.393-4.711a6.487,6.487,0,0,0-2.257-3.73c-2.257-2.356-3.141-2.552-6.707-1.636a32.1,32.1,0,0,1-4.744.883l-2.126.164-1.145-2.519a14.44,14.44,0,0,1-1.341-5.038c-.294-3.206-1.047-4.678-3.566-6.87a14.129,14.129,0,0,1-2.421-2.585c-.622-1.178-1.636-4.907-1.407-5.136.36-.36,2.159.851,2.257,1.538.131.851.458,1.047,3.01,1.8a12.489,12.489,0,0,0,4.744.36c3.468-.229,3.86-.36,4.482-1.668a11.339,11.339,0,0,1,1.439-2l.916-.982-.36-8.931c-.294-8.212-.294-9.062.262-10.861a4.805,4.805,0,0,0,.033-3.86c-.654-2.388-.654-3.631-.033-3.86.36-.164.491-.72.491-2.028,0-1.6.1-1.93.916-2.552.818-.687.883-.883.851-3.01a6.23,6.23,0,0,0-.72-3.468,5.725,5.725,0,0,1-.72-2.355c0-.622-.131-1.112-.294-1.112-.491,0-2,1.963-2,2.617,0,.785-.589,1.178-.851.523a3.76,3.76,0,0,0-1.276-1.145c-.851-.491-1.047-.785-.916-1.341.164-.654-1.112-3.893-1.57-3.926-.1,0-.36.36-.556.818-.491,1.08-1.374,1.08-1.374-.033a3.085,3.085,0,0,0-.981-1.832c-.851-.818-1.145-.949-2.028-.752s-1.145.1-1.8-.687c-.425-.523-.752-.818-.72-.622.164,1.014-.1,1.439-.916,1.538-.72.065-1.21-.2-2.126-1.178-1.145-1.178-1.276-1.243-2.683-1.047-1.112.164-1.538.1-1.9-.294-.851-1.047-3.435-3.108-3.86-3.108a5.95,5.95,0,0,0-1.439.818c-1.472,1.014-2.192,1.014-3.01.131-1.21-1.374-3.7-2.094-4.22-1.276-.1.164.1.327.458.327.393,0,.687.131.687.294a8.554,8.554,0,0,0,1.5,1.832c1.767,1.832,1.6,2.421-.589,1.865a12.953,12.953,0,0,0-3.533-.262c-1.865.1-2.192,0-2.683-.622-.949-1.243-6.052-2-6.379-.949-.065.229.2.327.72.2.687-.131,1.08.1,1.832.883a3.961,3.961,0,0,1,.949,1.472c0,.589-.851,1.276-1.243,1.047a.64.64,0,0,0-.687.262c-.262.327-.294.523-.033.687.622.393.327,1.439-.654,2.192a2.359,2.359,0,0,0-.981,1.309c0,.491-.262.589-1.57.589a4.306,4.306,0,0,0-2.225.491,2.241,2.241,0,0,1-1.112.458,15.813,15.813,0,0,0-4.253,1.374,4.811,4.811,0,0,1-.981,1.276c-1.014,1.08-1.178,1.8-.654,2.617.262.393.327.294.327-.393a1.541,1.541,0,0,1,.36-1.112,7.1,7.1,0,0,1,3.631-.556c1.08.229,1.21.752.2.752-1.5,0-2.879,1.211-3.86,3.468-1.047,2.323-2,2.977-4.613,3.206a3.58,3.58,0,0,0-2.094.851c-.72.654-.916.72-1.668.36-.949-.425-2.094-.2-2.094.393,0,.262.1.262.393-.033.556-.556.916-.491.916.229a1.043,1.043,0,0,0,.36.851.653.653,0,0,1,.1.785,14.585,14.585,0,0,0-.491,2c-.131.818-.36,1.865-.491,2.388-.164.687,0,1.145.687,2.061.752.981,1.014,1.112,1.832.949.752-.164.949-.1.949.294,0,.294.523.785,1.145,1.08,1.21.556,1.374,1.014.818,2.094-.425.785-.752.785-2.846-.1a11.846,11.846,0,0,1-5.562-5.169,17.62,17.62,0,0,0-2.552-3.533,11.233,11.233,0,0,1-1.93-2.748A12.3,12.3,0,0,1,86.2-487.6c.229-1.21.425-3.043.491-4.024s.2-2.421.327-3.173c.2-1.309.262-1.374,1.374-1.472,1.407-.1,1.472-.654.131-.981-.818-.229-.981-.523-1.472-2.454-.327-1.243-.687-2.912-.818-3.73a6.606,6.606,0,0,0-1.668-3.206,16.006,16.006,0,0,0-1.538-1.668,4.13,4.13,0,0,0,.065,1.374l.229,1.341-1.178-.883c-1.963-1.5-4.057-4.678-3.7-5.66a1.755,1.755,0,0,0-.164-1.178c-.36-.622-.393-.654-.818-.1a2.532,2.532,0,0,0-.229,1.636c.229,1.374-.458,2.65-2.879,5.594-2.715,3.3-3.272,4.744-3.468,8.964-.1,2.912-.262,3.7-.916,4.809l-.818,1.374.818.2c.981.262,1.08.851.164.851a4,4,0,0,0-1.57.458,10.254,10.254,0,0,1-2.617.622c-2.454.294-3.4.982-5.5,4.024a23.788,23.788,0,0,1-6.837,6.674,13.346,13.346,0,0,0-2.225,1.865,1.934,1.934,0,0,1-.981.752c-.229,0-.785-.851-1.243-1.9-4.384-9.651-12.1-27.088-13.217-29.869C34.345-511.284,32.873-514.261,32.84-513.574Zm84.536,10.011c.1.262.033.491-.131.491-.2,0-.327-.229-.327-.491s.065-.491.131-.491S117.246-503.825,117.376-503.563ZM100.724-480.99c0,.164-.327.36-.752.425-.72.1-.72.131-.2.556.523.36.523.491.131.981-.425.523-.785.523-2.028,0-.425-.164-.491-.065-.36.425a.682.682,0,0,1-.393.851c-.752.294-1.145-.033-1.145-.949,0-.753,1.341-1.9,2.944-2.552C99.645-481.513,100.724-481.382,100.724-480.99Zm39.062,11.45c.458.458.949,2.748.981,4.646.033.851-.1,1.08-.589,1.08a1.08,1.08,0,0,1-.883-.393,26.909,26.909,0,0,1-1.57-5.889C137.954-470.455,139.165-470.1,139.786-469.539Zm-68.735,6.8a1.148,1.148,0,0,1,.393.687c0,.523,1.243,1.6,2.421,2.094.883.393.916.491.72,1.8-.131.752-.327,2.781-.425,4.482a26.226,26.226,0,0,1-.294,3.239c-.164.164-1.08-.294-3.075-1.57a10.791,10.791,0,0,0-2.715-1.145l-1.21-.229L67-450.99a7.67,7.67,0,0,0,1.93,5.4c.752.851.654.916-1.8,1.21-.883.1-1.9.262-2.323.36-.851.229-.785.327-4.024-7.1a43.2,43.2,0,0,1-2.094-5.431c0-1.341,3.206-4.973,4.417-4.973a4.835,4.835,0,0,0,2.126-.949c1.21-.883,1.472-.949,3.37-.785A7.07,7.07,0,0,1,71.052-462.734Zm71.155,2.257c.327.589.818,1.472,1.145,1.963.393.654.458.981.2,1.243-.654.654-2.29-.458-2.552-1.668C140.473-461.557,141.16-462.44,142.207-460.477Zm17.241,34.286c.523.523.654,1.08.654,2.912a7.038,7.038,0,0,1-.229,2.421,85.885,85.885,0,0,1-9.487-1.538c-.491-.2-.36-.393.72-1.047,2.061-1.309,6.445-3.4,7.1-3.4A2.2,2.2,0,0,1,159.448-426.192ZM33.135-418.7c.36.229.36.687.033,2.65a17.825,17.825,0,0,0,2.584,12.268,6.78,6.78,0,0,1,1.014,1.93c0,.589-2.879,3.795-3.4,3.795-.229,0-.654.589-.949,1.309-.523,1.341-1.08,1.668-1.407.818a.992.992,0,0,0-.818-.491.908.908,0,0,0-.818.491,1.2,1.2,0,0,1-1.9,0,5.492,5.492,0,0,1,.065-1.9c.425-2.126-.065-3.337-1.734-4.482q-1.423-.981-1.276-1.472c.262-.622.916-.622,1.439.033.785.916,1.538,1.145,2.094.589.589-.556.687-1.963.2-2.257-.2-.131-.229.033-.1.36.2.491.033.458-.818-.164-.589-.393-1.047-.883-1.047-1.047,0-.491-1.276-.327-2.617.36a6.165,6.165,0,0,1-2.028.654c-.687-.033-.622-.131.589-1.243a5.393,5.393,0,0,0,1.57-2.127c.131-.491.36-.818.491-.72.164.1.229-.1.131-.458a.747.747,0,0,1,.2-.818c.458-.294.458-1.93.033-2.356-.523-.523.065-1.832,1.5-3.4A5.866,5.866,0,0,1,29.9-418.7C31.565-419.027,32.611-419.027,33.135-418.7Zm-9.455,7.557c0,1.243-.458,1.472-.981.491-.36-.654-.36-.883,0-1.309C23.255-412.615,23.68-412.288,23.68-411.143Zm3.926,7.263c0,.2-.229.164-.491-.065a1.4,1.4,0,0,1-.491-.72c0-.2.229-.164.491.065A1.4,1.4,0,0,1,27.606-403.88Zm3.6,18.419c.294.36.491.393.654.164.131-.2.393,0,.654.491a2.2,2.2,0,0,0,1.374,1.047c.851.164.883.229.36.622-.654.491-2.061.622-2.061.164,0-.425-2.355-.622-3.206-.262-.523.262-.851.229-1.145-.065s-.1-.622.916-1.5C30.223-386.083,30.616-386.181,31.2-385.461Zm-12.432,6.9c.818,1.865.818,1.865,0,1.439-.36-.2-.589-.491-.491-.654.131-.2-.033-.654-.294-1.047-.589-.851-.654-1.243-.2-1.243C17.955-380.063,18.38-379.376,18.773-378.558Z" transform="translate(0.3 513.804)" fill="#fff"/>
    <path id="Path_71" data-name="Path 71" d="M74.907-191.764c-.2.556-.262.981-.1.981.262,0,.785-1.636.589-1.832C75.333-192.68,75.1-192.288,74.907-191.764Z" transform="translate(-50.175 297.697)" fill="#fff"/>
    <path id="Path_72" data-name="Path 72" d="M33.207-105.393a.886.886,0,0,0,.164.851c.229.229.327.065.294-.523C33.6-106.047,33.5-106.113,33.207-105.393Z" transform="translate(-22.215 239.33)" fill="#fff"/>
    <path id="Path_73" data-name="Path 73" d="M83-104.869c0,.065.229.2.491.327.262.1.491.033.491-.131,0-.2-.229-.327-.491-.327S83-104.935,83-104.869Z" transform="translate(-55.748 238.741)" fill="#fff"/>
    <path id="Path_74" data-name="Path 74" d="M66.507-102.495a.419.419,0,0,0,.164.556c.491.327.818-.1.393-.523C66.834-102.691,66.638-102.691,66.507-102.495Z" transform="translate(-44.621 237.152)" fill="#fff"/>
    <path id="Path_75" data-name="Path 75" d="M87.891-101.194a1.264,1.264,0,0,0,1.832,0c.425-.327.294-.393-.949-.425C87.466-101.652,87.367-101.619,87.891-101.194Z" transform="translate(-58.84 236.473)" fill="#fff"/>
    <path id="Path_76" data-name="Path 76" d="M106.379-99.587a4.381,4.381,0,0,0,1.309,0c.294-.1-.033-.164-.752-.131C106.215-99.718,105.953-99.652,106.379-99.587Z" transform="translate(-71.341 235.192)" fill="#fff"/>
    <path id="Path_77" data-name="Path 77" d="M95.416-98.484c-.131.2.065.327.393.327a1.919,1.919,0,0,1,.949.262,1.252,1.252,0,0,0,1.112.033c.818-.229.818-.229.065-.262-.425-.033-.687-.131-.622-.294.1-.131-.262-.262-.785-.294C96.037-98.746,95.514-98.647,95.416-98.484Z" transform="translate(-64.075 234.515)" fill="#fff"/>
    <g id="header-logo-2" data-name="header-logo" transform="translate(159.763 0)" style="isolation: isolate">
      <path id="Path_70-2" data-name="Path 70" d="M161.251-513.574a16.9,16.9,0,0,1-1.243,4.024c-.556,1.374-.393,3.337.458,5.921.491,1.439.491,1.636,0,2.159a2.632,2.632,0,0,0-.523,1.538,4.234,4.234,0,0,1-.818,2.094,4.189,4.189,0,0,0-.818,1.669c0,.622-.229.818-3.533,2.944-2.257,1.472-2.519,1.865-4.875,7.492-.818,1.9-2.061,4.875-2.814,6.641-.818,1.93-1.21,3.3-1.014,3.468.164.164,1.407-.164,2.912-.818a14.538,14.538,0,0,1,3.828-1.08,7.933,7.933,0,0,0,2.748-.851c2.486-1.341,4.286-1.014,5.66.981,1.407,2.061,2.159,5.365,1.341,5.889a2.119,2.119,0,0,1-1.341-.327c-2.094-1.112-3.959-1.472-5.267-1.08-2.094.622-2.225,1.112-.654,2.552a6.014,6.014,0,0,1,1.57,2.126,3.089,3.089,0,0,0,2.813,1.8,4.678,4.678,0,0,1,1.7.491c1.21.622,1.668.622,3.926-.164a6.318,6.318,0,0,1,2.257-.458,13.366,13.366,0,0,0,3.01-.458c2.748-.654,4.547-.458,4.22.425-.294.752,1.112,1.243,2.879,1.014,1.309-.2,1.734-.1,2.421.425a6.318,6.318,0,0,0,2.388.851,8.438,8.438,0,0,1,3.206,1.276c2.29,1.5,2.486,1.538,5.005,1.112a7.569,7.569,0,0,1,2.454-.2c.262.229-1.047,2.486-2.159,3.7a5.154,5.154,0,0,0-1.08,1.7c-.229.72-3.01,3.272-4.351,3.991a1.214,1.214,0,0,0-.752.883c0,1.014,1.767,3.075,3.468,4.057,2.454,1.374,2.388,2.257-.2,3.73l-1.439.818-1.472-1.08c-2.323-1.7-4.776-2.814-6.183-2.814a10.79,10.79,0,0,0-5.758,1.472,5.249,5.249,0,0,1-3.272.981c-1.865.1-2.585.36-4.842,1.636-2.813,1.636-2.781,1.636-6.314.818-3.5-.785-4.024-1.014-5.463-2.094a29.244,29.244,0,0,0-4.547-2.552,36.455,36.455,0,0,1-9.193-6.15,12.923,12.923,0,0,0-2.552-1.963c-.2,0-.72.785-1.112,1.7-3.173,7.132-4.155,9.553-4.024,9.88a3.613,3.613,0,0,0,1.767.818,47.876,47.876,0,0,1,17.7,8.473,36.35,36.35,0,0,1,5.758,7.3c1.243,2.388,3.959,2.486,12.006.425,3.7-.916,7.1-1.014,9.16-.229a14.066,14.066,0,0,0,4.613.556,12.716,12.716,0,0,1,3.5.36c.262.262,0,.327-.785.229-1.5-.2-1.309.393.785,2.159a8.594,8.594,0,0,1,1.963,2.29,4.279,4.279,0,0,0,1.668,1.668,8.183,8.183,0,0,1,3.6,4.188,35.1,35.1,0,0,1,.556,5.333l.2,4.089-1.243.883-1.243.883-.1,3.206c-.033,1.767-.065,3.664-.1,4.22a10.724,10.724,0,0,1-.523,2.552c-.36,1.047-.425,1.668-.2,2.094.262.458.164.752-.327,1.145a1.824,1.824,0,0,0-.622,1.014c0,.883-.622.883-1.08-.033l-.491-.883-.687,1.112c-.752,1.276-.851,2.028-.327,2.977.262.491.2,1.08-.2,2.257a5.249,5.249,0,0,1-.851,1.8c-.164.131-.2-.1-.033-.556.393-1.08.491-3.86.164-3.86-.556,0-1.407,2.323-1.407,3.795,0,1.5-.425,2.748-.981,2.748-.164,0-.2-.523-.1-1.145.229-1.407-.294-2.094-1.439-2-.949.1-2.192,1.374-1.93,2a6.568,6.568,0,0,1-.818,2.323c-.752,1.538-.949,1.767-.949,1.08a13.615,13.615,0,0,1,1.9-4.973c.294-.327.36-.556.131-.556a.875.875,0,0,0-.622.425,6.624,6.624,0,0,1-1.341,1.178,4.636,4.636,0,0,0-2.028,3.239c0,1.112-1.276,2.29-3.991,3.664-2.879,1.439-3.37,1.538-4.351.785-.589-.425-.556-.458.458-.262.818.164,1.047.131.883-.164-.164-.262.2-.556,1.112-.916.851-.327,1.276-.687,1.178-.981-.1-.229.1-.556.458-.752a3.445,3.445,0,0,0,1.08-1.243l.458-.949-1.6-.327c-1.276-.262-1.668-.229-1.8.1s-.327.327-.949.065c-.491-.229-.752-.556-.622-.851.131-.327,0-.393-.393-.229a23.266,23.266,0,0,1-5.791.589c-2.094.033-2.29,0-3.01-.916-1.8-2.323-1.93-2.421-3.337-2.225a3.632,3.632,0,0,1-1.9-.2c-.556-.294-.491-.327.36-.36a10.39,10.39,0,0,0,6.379-2.617c1.276-1.341,1.636-1.9.981-1.472-.72.458-.262-.523.491-1.014,1.014-.654,1.08-1.538.1-1.374-.458.065-.981.622-1.472,1.57-1.243,2.355-2.584,3.533-4.286,3.795a3.607,3.607,0,0,1-2.094-.164,1.753,1.753,0,0,0-1.341-.164c-.622.2-.654.164-.262-.327a2.305,2.305,0,0,1,1.57-.523,4.035,4.035,0,0,0,3.828-2.028c.294-.687.36-1.21.164-1.44-.36-.425.393-2.715,1.309-4.024l.622-.883-1.374-1.538c-1.309-1.472-1.439-1.538-3.075-1.538-2.225,0-2.225-.589,0-.72l1.7-.1-1.014-1.047a6.511,6.511,0,0,0-1.243-1.08,11.646,11.646,0,0,0-1.8,1.341,59.728,59.728,0,0,1-9.226,6.183,10.776,10.776,0,0,0-2.879,1.93,5.159,5.159,0,0,0,.294,4.122c.785,1.668,3.926,5.463,6.314,7.655,3.37,3.075,3.337,4.94-.164,7.95-2.879,2.519-3.5,2.879-4.875,2.879-2.715,0-15.474,5.791-18.157,8.244a11.689,11.689,0,0,1-2.65,1.9c-.981.393-1.112.36-1.57-.294-.622-.883-1.439-.883-2.584,0a1.489,1.489,0,0,0-.687,1.8c.262,1.341-.883,3.86-1.963,4.351-2.486,1.112-9.128,1.309-10.142.294-.491-.491-.393-.752,1.178-3.6,2.159-3.828,2.323-4.024,4.776-5.2a16.535,16.535,0,0,0,4.449-3.337c2.192-2.159,2.617-2.454,4.678-3.01,7.1-1.9,16.292-5.758,16.619-7a6.4,6.4,0,0,0-.949-4.024c-1.341-1.668-3.435-3.3-3.795-2.944a12.669,12.669,0,0,0-.556,3.4c-.294,3.566-.523,4.089-2.355,5.365l-1.407.949-6.052-.1c-6.118-.065-12.4.393-13.61.981a5.089,5.089,0,0,0-1.145.883,4.938,4.938,0,0,1-1.734.981c-1.21.393-1.309.393-2.192-.458a2.241,2.241,0,0,0-1.538-.752c-.523.1-.589.491-.687,3.108l-.1,3.01-2.355.523c-1.309.294-3.01.622-3.828.72-1.734.2-4.253-.393-4.253-1.014a25.686,25.686,0,0,1,2.126-5.627,12.254,12.254,0,0,1,2.355-2.192c1.014-.752,2.846-2.29,4.057-3.4a13.132,13.132,0,0,1,3.3-2.323,58.529,58.529,0,0,1,7.623-.523c7.132-.2,8.113-.36,10.371-1.8,2-1.276,2.617-2.552,2.814-5.66l.164-2.552-1.309-1.7c-.72-.949-1.865-2.617-2.552-3.7a22.1,22.1,0,0,0-2.814-3.468c-1.57-1.5-1.6-1.57-1.6-3.5,0-1.9-.033-2-.916-2.159-.785-.2-16.1-.131-16.1.033,0,.033.2.72.458,1.472a12.3,12.3,0,0,1,.393,3.206c-.033,1.734-.065,1.8-.981,1.9a5,5,0,0,0-1.7.589,3.7,3.7,0,0,1-2.159.393c-1.145-.065-1.472-.262-1.832-1.014-.425-.883-1.7-1.276-1.7-.523,0,.556-3.86.164-5.071-.491-.556-.294-2.192-.981-3.631-1.538-4.678-1.767-6.02-3.893-2.454-3.893,1.767,0,6.281-.883,6.707-1.309.491-.491-.654-.752-1.407-.36-1.6.883-3.468.2-5.365-1.9a5.215,5.215,0,0,0-1.5-1.341,4.507,4.507,0,0,1-1.374-.883,8.567,8.567,0,0,0-2.094-1.276,1.481,1.481,0,0,0-1.9.393,1.686,1.686,0,0,1-1.668.523,6.731,6.731,0,0,1-3.206-2.977c-.589-1.047-1.08-1.21-2.715-.72-.949.262-2.29.131-6.379-.556a10.229,10.229,0,0,0-3.6,0c-.981.164-5.2.294-9.357.294H38.7l-.393,1.08a4.16,4.16,0,0,0,.131,3.73c.622.916,1.178.916,1.963.033a5.809,5.809,0,0,1,1.57-1.178c.949-.491,1.014-.491,1.767.425,2.454,3.01,4.449,9.847,3.337,11.581-.425.687-2.486.065-6.379-1.865-2.486-1.243-3.075-1.668-3.206-2.355-.262-1.211-2.65-3.828-4.678-5.136a4.945,4.945,0,0,1-2.584-3.828c-.262-1.21-.687-1.08-4.875,1.5-5.954,3.6-7.426,4.776-8.146,6.412-.72,1.7-1.439,2.65-2.028,2.65a5.422,5.422,0,0,1-1.6-1.145c-1.309-1.21-2-1.407-2.257-.752a23.8,23.8,0,0,0,.294,5.4c.164.916.065,1.112-1.112,1.9a13.656,13.656,0,0,1-2.879,1.341c-2.683.818-7.721.458-7.917-.589a19.415,19.415,0,0,1,1.93-4.351c1.636-3.141,2.257-3.959,3.37-4.646,2.192-1.374,4.057-3.075,4.449-4.057.589-1.374,1.6-2.126,4.089-2.912,5.071-1.636,10.142-4.711,12.693-7.688a8.916,8.916,0,0,1,2.225-1.963c.622-.2.687-.393.491-1.767a34.453,34.453,0,0,0-1.08-4.384c-.818-2.683-.818-2.944-.393-4.711a6.487,6.487,0,0,1,2.257-3.73c2.257-2.356,3.141-2.552,6.707-1.636a32.1,32.1,0,0,0,4.744.883l2.126.164,1.145-2.519a14.44,14.44,0,0,0,1.341-5.038c.294-3.206,1.047-4.678,3.566-6.87a14.129,14.129,0,0,0,2.421-2.585c.622-1.178,1.636-4.907,1.407-5.136-.36-.36-2.159.851-2.257,1.538-.131.851-.458,1.047-3.01,1.8a12.489,12.489,0,0,1-4.744.36c-3.468-.229-3.86-.36-4.482-1.668a11.339,11.339,0,0,0-1.439-2l-.916-.982.36-8.931C37-474.25,37-475.1,36.443-476.9a4.805,4.805,0,0,1-.033-3.86c.654-2.388.654-3.631.033-3.86-.36-.164-.491-.72-.491-2.028,0-1.6-.1-1.93-.916-2.552-.818-.687-.883-.883-.851-3.01a6.23,6.23,0,0,1,.72-3.468,5.725,5.725,0,0,0,.72-2.355c0-.622.131-1.112.294-1.112.491,0,2,1.963,2,2.617,0,.785.589,1.178.851.523a3.76,3.76,0,0,1,1.276-1.145c.851-.491,1.047-.785.916-1.341-.164-.654,1.112-3.893,1.57-3.926.1,0,.36.36.556.818.491,1.08,1.374,1.08,1.374-.033a3.085,3.085,0,0,1,.981-1.832c.851-.818,1.145-.949,2.028-.752s1.145.1,1.8-.687c.425-.523.752-.818.72-.622-.164,1.014.1,1.439.916,1.538.72.065,1.21-.2,2.126-1.178,1.145-1.178,1.276-1.243,2.683-1.047,1.112.164,1.538.1,1.9-.294.851-1.047,3.435-3.108,3.86-3.108a5.95,5.95,0,0,1,1.439.818c1.472,1.014,2.192,1.014,3.01.131,1.21-1.374,3.7-2.094,4.22-1.276.1.164-.1.327-.458.327-.393,0-.687.131-.687.294a8.554,8.554,0,0,1-1.5,1.832c-1.767,1.832-1.6,2.421.589,1.865a12.953,12.953,0,0,1,3.533-.262c1.865.1,2.192,0,2.683-.622.949-1.243,6.052-2,6.379-.949.065.229-.2.327-.72.2-.687-.131-1.08.1-1.832.883a3.961,3.961,0,0,0-.949,1.472c0,.589.851,1.276,1.243,1.047a.64.64,0,0,1,.687.262c.262.327.294.523.033.687-.622.393-.327,1.439.654,2.192a2.359,2.359,0,0,1,.981,1.309c0,.491.262.589,1.57.589a4.306,4.306,0,0,1,2.225.491,2.241,2.241,0,0,0,1.112.458,15.813,15.813,0,0,1,4.253,1.374,4.811,4.811,0,0,0,.981,1.276c1.014,1.08,1.178,1.8.654,2.617-.262.393-.327.294-.327-.393a1.541,1.541,0,0,0-.36-1.112,7.1,7.1,0,0,0-3.631-.556c-1.08.229-1.21.752-.2.752,1.5,0,2.879,1.211,3.86,3.468,1.047,2.323,2,2.977,4.613,3.206a3.58,3.58,0,0,1,2.094.851c.72.654.916.72,1.668.36.949-.425,2.094-.2,2.094.393,0,.262-.1.262-.393-.033-.556-.556-.916-.491-.916.229a1.043,1.043,0,0,1-.36.851.653.653,0,0,0-.1.785,14.585,14.585,0,0,1,.491,2c.131.818.36,1.865.491,2.388.164.687,0,1.145-.687,2.061-.752.981-1.014,1.112-1.832.949-.752-.164-.949-.1-.949.294,0,.294-.523.785-1.145,1.08-1.21.556-1.374,1.014-.818,2.094.425.785.752.785,2.846-.1a11.846,11.846,0,0,0,5.562-5.169,17.62,17.62,0,0,1,2.552-3.533,11.233,11.233,0,0,0,1.93-2.748,12.3,12.3,0,0,0-.164-3.108c-.229-1.21-.425-3.043-.491-4.024s-.2-2.421-.327-3.173c-.2-1.309-.262-1.374-1.374-1.472-1.407-.1-1.472-.654-.131-.981.818-.229.981-.523,1.472-2.454.327-1.243.687-2.912.818-3.73a6.606,6.606,0,0,1,1.668-3.206,16.006,16.006,0,0,1,1.538-1.668,4.13,4.13,0,0,1-.065,1.374l-.229,1.341,1.178-.883c1.963-1.5,4.057-4.678,3.7-5.66a1.755,1.755,0,0,1,.164-1.178c.36-.622.393-.654.818-.1a2.532,2.532,0,0,1,.229,1.636c-.229,1.374.458,2.65,2.879,5.594,2.715,3.3,3.272,4.744,3.468,8.964.1,2.912.262,3.7.916,4.809l.818,1.374-.818.2c-.981.262-1.08.851-.164.851a4,4,0,0,1,1.57.458,10.254,10.254,0,0,0,2.617.622c2.454.294,3.4.982,5.5,4.024a23.788,23.788,0,0,0,6.837,6.674,13.346,13.346,0,0,1,2.225,1.865,1.934,1.934,0,0,0,.981.752c.229,0,.785-.851,1.243-1.9,4.384-9.651,12.1-27.088,13.217-29.869C159.746-511.284,161.218-514.261,161.251-513.574ZM76.715-503.563c-.1.262-.033.491.131.491.2,0,.327-.229.327-.491s-.065-.491-.131-.491S76.846-503.825,76.715-503.563ZM93.367-480.99c0,.164.327.36.752.425.72.1.72.131.2.556-.523.36-.523.491-.131.981.425.523.785.523,2.028,0,.425-.164.491-.065.36.425a.682.682,0,0,0,.393.851c.752.294,1.145-.033,1.145-.949,0-.753-1.341-1.9-2.944-2.552C94.447-481.513,93.367-481.382,93.367-480.99Zm-39.062,11.45c-.458.458-.949,2.748-.981,4.646-.033.851.1,1.08.589,1.08a1.08,1.08,0,0,0,.883-.393,26.909,26.909,0,0,0,1.57-5.889C56.137-470.455,54.927-470.1,54.305-469.539Zm68.735,6.8a1.148,1.148,0,0,0-.393.687c0,.523-1.243,1.6-2.421,2.094-.883.393-.916.491-.72,1.8.131.752.327,2.781.425,4.482a26.226,26.226,0,0,0,.294,3.239c.164.164,1.08-.294,3.075-1.57a10.791,10.791,0,0,1,2.715-1.145l1.21-.229-.131,2.388a7.67,7.67,0,0,1-1.93,5.4c-.752.851-.654.916,1.8,1.21.883.1,1.9.262,2.323.36.851.229.785.327,4.024-7.1a43.2,43.2,0,0,0,2.094-5.431c0-1.341-3.206-4.973-4.417-4.973a4.835,4.835,0,0,1-2.126-.949c-1.21-.883-1.472-.949-3.37-.785A7.07,7.07,0,0,0,123.04-462.734Zm-71.155,2.257c-.327.589-.818,1.472-1.145,1.963-.393.654-.458.981-.2,1.243.654.654,2.29-.458,2.552-1.668C53.618-461.557,52.931-462.44,51.884-460.477ZM34.643-426.192c-.523.523-.654,1.08-.654,2.912a7.038,7.038,0,0,0,.229,2.421,85.885,85.885,0,0,0,9.487-1.538c.491-.2.36-.393-.72-1.047-2.061-1.309-6.445-3.4-7.1-3.4A2.2,2.2,0,0,0,34.643-426.192ZM160.957-418.7c-.36.229-.36.687-.033,2.65a17.825,17.825,0,0,1-2.584,12.268,6.78,6.78,0,0,0-1.014,1.93c0,.589,2.879,3.795,3.4,3.795.229,0,.654.589.949,1.309.523,1.341,1.08,1.668,1.407.818a.992.992,0,0,1,.818-.491.908.908,0,0,1,.818.491,1.2,1.2,0,0,0,1.9,0,5.492,5.492,0,0,0-.065-1.9c-.425-2.126.065-3.337,1.734-4.482q1.423-.981,1.276-1.472c-.262-.622-.916-.622-1.439.033-.785.916-1.538,1.145-2.094.589-.589-.556-.687-1.963-.2-2.257.2-.131.229.033.1.36-.2.491-.033.458.818-.164.589-.393,1.047-.883,1.047-1.047,0-.491,1.276-.327,2.617.36a6.165,6.165,0,0,0,2.028.654c.687-.033.622-.131-.589-1.243a5.393,5.393,0,0,1-1.57-2.127c-.131-.491-.36-.818-.491-.72-.164.1-.229-.1-.131-.458a.747.747,0,0,0-.2-.818c-.458-.294-.458-1.93-.033-2.356.523-.523-.065-1.832-1.5-3.4a5.866,5.866,0,0,0-3.73-2.323C162.527-419.027,161.48-419.027,160.957-418.7Zm9.455,7.557c0,1.243.458,1.472.981.491.36-.654.36-.883,0-1.309C170.837-412.615,170.411-412.288,170.411-411.143Zm-3.926,7.263c0,.2.229.164.491-.065a1.4,1.4,0,0,0,.491-.72c0-.2-.229-.164-.491.065A1.4,1.4,0,0,0,166.485-403.88Zm-3.6,18.419c-.294.36-.491.393-.654.164-.131-.2-.393,0-.654.491a2.2,2.2,0,0,1-1.374,1.047c-.851.164-.883.229-.36.622.654.491,2.061.622,2.061.164,0-.425,2.355-.622,3.206-.262.523.262.851.229,1.145-.065s.1-.622-.916-1.5C163.868-386.083,163.476-386.181,162.887-385.461Zm12.432,6.9c-.818,1.865-.818,1.865,0,1.439.36-.2.589-.491.491-.654-.131-.2.033-.654.294-1.047.589-.851.654-1.243.2-1.243C176.136-380.063,175.711-379.376,175.318-378.558Z" transform="translate(0.3 513.804)" fill="#fff"/>
      <path id="Path_71-2" data-name="Path 71" d="M75.25-191.764c.2.556.262.981.1.981-.262,0-.785-1.636-.589-1.832C74.825-192.68,75.054-192.288,75.25-191.764Z" transform="translate(94.708 297.697)" fill="#fff"/>
      <path id="Path_72-2" data-name="Path 72" d="M33.626-105.393a.886.886,0,0,1-.164.851c-.229.229-.327.065-.294-.523C33.234-106.047,33.332-106.113,33.626-105.393Z" transform="translate(150.073 239.33)" fill="#fff"/>
      <path id="Path_73-2" data-name="Path 73" d="M83.981-104.869c0,.065-.229.2-.491.327-.262.1-.491.033-.491-.131,0-.2.229-.327.491-.327S83.981-104.935,83.981-104.869Z" transform="translate(83.458 238.741)" fill="#fff"/>
      <path id="Path_74-2" data-name="Path 74" d="M67.215-102.495a.419.419,0,0,1-.164.556c-.491.327-.818-.1-.393-.523C66.888-102.691,67.084-102.691,67.215-102.495Z" transform="translate(105.59 237.152)" fill="#fff"/>
      <path id="Path_75-2" data-name="Path 75" d="M89.646-101.194a1.264,1.264,0,0,1-1.832,0c-.425-.327-.294-.393.949-.425C90.071-101.652,90.17-101.619,89.646-101.194Z" transform="translate(75.994 236.473)" fill="#fff"/>
      <path id="Path_76-2" data-name="Path 76" d="M107.59-99.587a4.381,4.381,0,0,1-1.309,0c-.294-.1.033-.164.752-.131C107.754-99.718,108.016-99.652,107.59-99.587Z" transform="translate(52.063 235.192)" fill="#fff"/>
      <path id="Path_77-2" data-name="Path 77" d="M98.45-98.484c.131.2-.065.327-.393.327a1.919,1.919,0,0,0-.949.262A1.252,1.252,0,0,1,96-97.862c-.818-.229-.818-.229-.065-.262.425-.033.687-.131.622-.294-.1-.131.262-.262.785-.294C97.829-98.746,98.352-98.647,98.45-98.484Z" transform="translate(64.9 234.515)" fill="#fff"/>
    </g>
  </g>
</svg>
